<svg width="81" height="81" viewBox="0 0 81 81" fill="none" xmlns="http://www.w3.org/2000/svg">
<mask id="path-1-inside-1_142_2" fill="white">
<path d="M0 40.5C0 18.1325 18.1325 0 40.5 0C62.8675 0 81 18.1325 81 40.5C81 62.8675 62.8675 81 40.5 81C18.1325 81 0 62.8675 0 40.5Z"/>
</mask>
<path d="M0 40.5C0 18.1325 18.1325 0 40.5 0C62.8675 0 81 18.1325 81 40.5C81 62.8675 62.8675 81 40.5 81C18.1325 81 0 62.8675 0 40.5Z" fill="url(#paint0_linear_142_2)"/>
<path d="M0 0H81H0ZM84 42C84 65.196 65.196 84 42 84C18.804 84 0 65.196 0 42V40.5C0 61.2107 18.1325 78 40.5 78C61.2107 78 78 61.2107 78 40.5L84 42ZM0 81V0V81ZM42 0C65.196 0 84 18.804 84 42C84 65.196 65.196 84 42 84L40.5 78C61.2107 78 78 61.2107 78 40.5C78 18.1325 61.2107 0 40.5 0H42Z" fill="#272727" mask="url(#path-1-inside-1_142_2)"/>
<path d="M33.2188 45.2812C33.2188 46.25 33.026 47.1562 32.6406 48C32.2656 48.8333 31.6875 49.5625 30.9062 50.1875C30.125 50.8021 29.1302 51.2865 27.9219 51.6406C26.7135 51.9844 25.2812 52.1562 23.625 52.1562C22.7188 52.1562 21.8177 52.1458 20.9219 52.125C20.0365 52.1146 19.2344 52.099 18.5156 52.0781C17.6719 52.0573 16.8698 52.0312 16.1094 52C16.1719 51.6875 16.2188 51.2865 16.25 50.7969C16.2812 50.3073 16.3021 49.7552 16.3125 49.1406C16.3333 48.526 16.3438 47.8594 16.3438 47.1406V34.1406C16.3438 33.4115 16.3333 32.7344 16.3125 32.1094C16.3021 31.474 16.2812 30.9062 16.25 30.4062C16.2188 29.9062 16.1719 29.5 16.1094 29.1875C16.4948 29.1667 16.9479 29.1458 17.4688 29.125C17.9896 29.1042 18.5625 29.0885 19.1875 29.0781C19.8125 29.0573 20.4792 29.0469 21.1875 29.0469C21.8958 29.0365 22.625 29.0312 23.375 29.0312C24.6354 29.0312 25.7917 29.1302 26.8438 29.3281C27.9062 29.5156 28.8229 29.8333 29.5938 30.2812C30.3646 30.7188 30.9635 31.2969 31.3906 32.0156C31.8281 32.7344 32.0469 33.6146 32.0469 34.6562C32.0469 35.2917 31.9479 35.8646 31.75 36.375C31.5625 36.8854 31.3021 37.3438 30.9688 37.75C30.6354 38.1458 30.2448 38.4896 29.7969 38.7812C29.3594 39.0625 28.8854 39.3021 28.375 39.5C28.9583 39.6562 29.5365 39.8698 30.1094 40.1406C30.6927 40.401 31.2135 40.7552 31.6719 41.2031C32.1302 41.651 32.5 42.2083 32.7812 42.875C33.0729 43.5312 33.2188 44.3333 33.2188 45.2812ZM20.7969 48.5625C21.0573 48.5833 21.4531 48.6042 21.9844 48.625C22.5156 48.6354 23.1719 48.6406 23.9531 48.6406C24.6302 48.6406 25.2708 48.5833 25.875 48.4688C26.4896 48.3438 27.0208 48.1406 27.4688 47.8594C27.9271 47.5781 28.2865 47.2031 28.5469 46.7344C28.8177 46.2656 28.9531 45.6771 28.9531 44.9688C28.9531 43.8958 28.5052 43.0885 27.6094 42.5469C26.724 41.9948 25.4583 41.7188 23.8125 41.7188H20.7969V48.5625ZM20.7969 38.3281H23.2188C24.7083 38.3281 25.8385 38.0521 26.6094 37.5C27.3906 36.9375 27.7812 36.1615 27.7812 35.1719C27.7812 34.2448 27.4531 33.5573 26.7969 33.1094C26.1406 32.651 25.0833 32.4219 23.625 32.4219C23.0833 32.4219 22.5469 32.4323 22.0156 32.4531C21.4948 32.4635 21.0885 32.4792 20.7969 32.5V38.3281ZM46.5938 44.8906V34.1406C46.5938 33.4115 46.5833 32.7344 46.5625 32.1094C46.5521 31.474 46.5312 30.9062 46.5 30.4062C46.4688 29.9062 46.4219 29.5 46.3594 29.1875C46.5885 29.1771 46.8802 29.1667 47.2344 29.1562C47.599 29.1354 47.9948 29.1198 48.4219 29.1094C48.8594 29.099 49.3177 29.0885 49.7969 29.0781C50.276 29.0677 50.7552 29.0625 51.2344 29.0625C51.7135 29.0521 52.1771 29.0469 52.625 29.0469C53.0729 29.0365 53.4844 29.0312 53.8594 29.0312C54.5781 29.0312 55.3594 29.0833 56.2031 29.1875C57.0573 29.2917 57.9115 29.4948 58.7656 29.7969C59.6302 30.0885 60.4583 30.5 61.25 31.0312C62.0521 31.5521 62.7604 32.2344 63.375 33.0781C64 33.9219 64.4948 34.9479 64.8594 36.1562C65.2344 37.3646 65.4219 38.7917 65.4219 40.4375C65.4219 41.9896 65.2396 43.3594 64.875 44.5469C64.5104 45.724 64.0208 46.7448 63.4062 47.6094C62.8021 48.474 62.099 49.1979 61.2969 49.7812C60.4948 50.3646 59.651 50.8333 58.7656 51.1875C57.8906 51.5417 57 51.7917 56.0938 51.9375C55.1875 52.0833 54.3333 52.1562 53.5312 52.1562C53.2604 52.1562 52.9531 52.151 52.6094 52.1406C52.2656 52.1406 51.901 52.1354 51.5156 52.125C51.1302 52.125 50.7344 52.1198 50.3281 52.1094C49.9323 52.099 49.5417 52.0885 49.1562 52.0781C48.2604 52.0573 47.3281 52.0312 46.3594 52C46.4219 51.6875 46.4635 51.2865 46.4844 50.7969C46.5156 50.3073 46.5365 49.7552 46.5469 49.1406C46.5677 48.526 46.5781 47.8594 46.5781 47.1406C46.5885 46.4115 46.5938 45.6615 46.5938 44.8906ZM51.0469 48.3906C51.349 48.4219 51.7448 48.4583 52.2344 48.5C52.724 48.5312 53.2812 48.5469 53.9062 48.5469C54.7812 48.5469 55.6354 48.4062 56.4688 48.125C57.3021 47.8438 58.0417 47.3958 58.6875 46.7812C59.3438 46.1562 59.8698 45.349 60.2656 44.3594C60.6615 43.3698 60.8594 42.1667 60.8594 40.75C60.8594 39.1979 60.6875 37.8958 60.3438 36.8438C60.0104 35.7917 59.5417 34.9479 58.9375 34.3125C58.3333 33.6667 57.6042 33.2083 56.75 32.9375C55.9062 32.6667 54.9792 32.5312 53.9688 32.5312C53.75 32.5312 53.5052 32.5365 53.2344 32.5469C52.974 32.5469 52.7083 32.5521 52.4375 32.5625C52.1667 32.5729 51.9062 32.5833 51.6562 32.5938C51.4167 32.5938 51.2135 32.599 51.0469 32.6094V48.3906Z" fill="black"/>
<defs>
<linearGradient id="paint0_linear_142_2" x1="46.5" y1="26.6143" x2="72.1884" y2="77.0396" gradientUnits="userSpaceOnUse">
<stop stop-color="white"/>
<stop offset="1" stop-color="#A5D5DF"/>
</linearGradient>
</defs>
</svg>
