<svg width="81" height="81" viewBox="0 0 81 81" fill="none" xmlns="http://www.w3.org/2000/svg">
<mask id="path-1-inside-1_142_2" fill="white">
<path d="M0 40.5C0 18.1325 18.1325 0 40.5 0V0C62.8675 0 81 18.1325 81 40.5V40.5C81 62.8675 62.8675 81 40.5 81V81C18.1325 81 0 62.8675 0 40.5V40.5Z"/>
</mask>
<path d="M0 40.5C0 18.1325 18.1325 0 40.5 0V0C62.8675 0 81 18.1325 81 40.5V40.5C81 62.8675 62.8675 81 40.5 81V81C18.1325 81 0 62.8675 0 40.5V40.5Z" fill="url(#paint0_linear_142_2)"/>
<path d="M0 0H81H0ZM84 42C84 65.196 65.196 84 42 84C18.804 84 0 65.196 0 42V40.5C0 61.2107 18.1325 78 40.5 78C61.2107 78 78 61.2107 78 40.5L84 42ZM0 81V0V81ZM42 0C65.196 0 84 18.804 84 42C84 65.196 65.196 84 42 84L40.5 78C61.2107 78 78 61.2107 78 40.5C78 18.1325 61.2107 0 40.5 0H42Z" fill="#272727" mask="url(#path-1-inside-1_142_2)"/>
<path d="M29.0605 41.52C30.9165 41.52 32.4952 41.968 33.7965 42.864C35.0978 43.7387 35.7485 45.04 35.7485 46.768C35.7485 48.752 34.9485 50.4693 33.3485 51.92C31.7698 53.3707 29.8392 54.4693 27.5565 55.216C25.2952 55.984 23.1725 56.4 21.1885 56.464L20.9005 55.312C23.6312 54.7573 26.0418 53.808 28.1325 52.464C30.2445 51.12 31.3005 49.3067 31.3005 47.024C31.3005 46.192 31.0552 45.456 30.5645 44.816C30.0952 44.1547 29.4765 43.6533 28.7085 43.312C27.9618 42.9493 27.1832 42.768 26.3725 42.768C24.9645 42.768 23.5245 43.056 22.0525 43.632L21.9885 43.472V53.136L17.9885 54.448V42.672C17.9885 40.5173 18.4578 38.544 19.3965 36.752C20.3352 34.96 21.6472 33.552 23.3325 32.528C25.0392 31.4827 26.9592 30.96 29.0925 30.96C30.1805 30.96 31.0978 31.2267 31.8445 31.76C32.5912 32.2933 32.9645 33.0613 32.9645 34.064C32.9645 35.408 32.2712 36.784 30.8845 38.192C29.4978 39.5787 27.9512 40.752 26.2445 41.712L26.3085 41.872C27.3965 41.6373 28.3138 41.52 29.0605 41.52ZM21.9885 42.672C23.7805 41.8187 25.3272 40.7627 26.6285 39.504C27.9512 38.2453 28.6125 36.848 28.6125 35.312C28.6125 34.5227 28.4098 33.8933 28.0045 33.424C27.5992 32.9333 27.0445 32.688 26.3405 32.688C25.2738 32.688 24.4098 33.1467 23.7485 34.064C23.1085 34.96 22.6498 36.0373 22.3725 37.296C22.1165 38.5547 21.9885 39.76 21.9885 40.912V42.672ZM55.7248 30.736C58.4768 30.736 60.5674 31.4933 61.9968 33.008C63.4261 34.5227 64.1408 36.592 64.1408 39.216C64.1408 42.032 63.2448 44.5707 61.4528 46.832C59.6608 49.0933 57.3781 50.8853 54.6048 52.208C51.8528 53.5093 49.0688 54.2453 46.2528 54.416V36.496L50.2208 35.184V52.4C52.1194 51.824 53.7941 50.928 55.2448 49.712C56.6954 48.4747 57.8261 47.0027 58.6368 45.296C59.4688 43.5893 59.8848 41.7333 59.8848 39.728C59.8848 37.616 59.3514 35.9307 58.2848 34.672C57.2394 33.4133 55.7888 32.784 53.9328 32.784C52.4608 32.784 50.9248 33.136 49.3248 33.84C47.7461 34.5227 46.3168 35.408 45.0368 36.496L44.2368 35.568C45.6021 34.224 47.3408 33.0827 49.4528 32.144C51.5648 31.2053 53.6554 30.736 55.7248 30.736Z" fill="black"/>
<defs>
<linearGradient id="paint0_linear_142_2" x1="46.5" y1="26.6143" x2="72.1884" y2="77.0396" gradientUnits="userSpaceOnUse">
<stop stop-color="white"/>
<stop offset="1" stop-color="#DFC9A5"/>
</linearGradient>
</defs>
</svg>
