<svg width="160" height="60" viewBox="0 0 160 60" fill="none" xmlns="http://www.w3.org/2000/svg">
<mask id="path-1-inside-1_136_16" fill="white">
<path d="M0 30C0 13.4315 13.4315 0 30 0H130C146.569 0 160 13.4315 160 30V30C160 46.5685 146.569 60 130 60H30C13.4315 60 0 46.5685 0 30V30Z"/>
</mask>
<path d="M0 30C0 13.4315 13.4315 0 30 0H130C146.569 0 160 13.4315 160 30V30C160 46.5685 146.569 60 130 60H30C13.4315 60 0 46.5685 0 30V30Z" fill="url(#paint0_linear_136_16)"/>
<path d="M0 0H160H0ZM163 31.5C163 48.897 148.897 63 131.5 63H33C14.7746 63 0 48.2254 0 30C0 44.9117 13.4315 57 30 57H130C144.912 57 157 44.9117 157 30L163 31.5ZM0 60V0V60ZM131.5 0C148.897 0 163 14.103 163 31.5C163 48.897 148.897 63 131.5 63L130 57C144.912 57 157 44.9117 157 30C157 13.4315 144.912 0 130 0H131.5Z" fill="#272727" mask="url(#path-1-inside-1_136_16)"/>
<path d="M24.998 34.9782C24.998 35.8259 24.8294 36.6189 24.4922 37.3571C24.1641 38.0863 23.6582 38.7243 22.9746 39.2712C22.291 39.809 21.4206 40.2328 20.3633 40.5427C19.306 40.8435 18.0527 40.9939 16.6035 40.9939C15.8105 40.9939 15.0221 40.9848 14.2383 40.9665C13.4635 40.9574 12.7617 40.9437 12.1328 40.9255C11.3945 40.9073 10.6927 40.8845 10.0273 40.8571C10.082 40.5837 10.123 40.2328 10.1504 39.8044C10.1777 39.376 10.196 38.893 10.2051 38.3552C10.2233 37.8174 10.2324 37.2341 10.2324 36.6052V25.2302C10.2324 24.5922 10.2233 23.9997 10.2051 23.4529C10.196 22.8969 10.1777 22.4001 10.1504 21.9626C10.123 21.5251 10.082 21.1696 10.0273 20.8962C10.3646 20.878 10.7611 20.8598 11.2168 20.8415C11.6725 20.8233 12.1738 20.8096 12.7207 20.8005C13.2676 20.7823 13.8509 20.7732 14.4707 20.7732C15.0905 20.764 15.7285 20.7595 16.3848 20.7595C17.4876 20.7595 18.4993 20.8461 19.4199 21.0193C20.3496 21.1833 21.1517 21.4613 21.8262 21.8532C22.5007 22.2361 23.0247 22.7419 23.3984 23.3708C23.7812 23.9997 23.9727 24.7699 23.9727 25.6814C23.9727 26.2374 23.8861 26.7387 23.7129 27.1853C23.5488 27.6319 23.321 28.0329 23.0293 28.3884C22.7376 28.7348 22.3958 29.0355 22.0039 29.2907C21.6211 29.5368 21.2064 29.7465 20.7598 29.9196C21.2702 30.0564 21.776 30.2432 22.2773 30.4802C22.7878 30.7081 23.2435 31.018 23.6445 31.4099C24.0456 31.8018 24.3691 32.2894 24.6152 32.8728C24.8704 33.447 24.998 34.1488 24.998 34.9782ZM14.1289 37.8493C14.3568 37.8676 14.7031 37.8858 15.168 37.904C15.6328 37.9131 16.207 37.9177 16.8906 37.9177C17.4831 37.9177 18.0436 37.8676 18.5723 37.7673C19.11 37.6579 19.5749 37.4802 19.9668 37.2341C20.3678 36.988 20.6823 36.6599 20.9102 36.2497C21.1471 35.8396 21.2656 35.3246 21.2656 34.7048C21.2656 33.766 20.8737 33.0596 20.0898 32.5857C19.3151 32.1026 18.2077 31.8611 16.7676 31.8611H14.1289V37.8493ZM14.1289 28.8943H16.248C17.5514 28.8943 18.5404 28.6527 19.2148 28.1696C19.8984 27.6775 20.2402 26.9984 20.2402 26.1325C20.2402 25.3213 19.9531 24.7198 19.3789 24.3279C18.8047 23.9268 17.8796 23.7263 16.6035 23.7263C16.1296 23.7263 15.6602 23.7354 15.1953 23.7536C14.7396 23.7627 14.3841 23.7764 14.1289 23.7946V28.8943ZM31.9844 33.9255C31.9844 34.5818 32.0436 35.1696 32.1621 35.6892C32.2897 36.1996 32.472 36.6371 32.709 37.0017C32.9551 37.3663 33.2559 37.6443 33.6113 37.8357C33.9759 38.0271 34.3906 38.1228 34.8555 38.1228C35.293 38.1228 35.6895 38.0271 36.0449 37.8357C36.4004 37.6443 36.7012 37.3663 36.9473 37.0017C37.2025 36.6371 37.3939 36.1996 37.5215 35.6892C37.6582 35.1696 37.7266 34.5818 37.7266 33.9255C37.7266 32.613 37.4805 31.5831 36.9883 30.8357C36.5052 30.0883 35.7943 29.7146 34.8555 29.7146C34.418 29.7146 34.0215 29.8103 33.666 30.0017C33.3105 30.1931 33.0052 30.4711 32.75 30.8357C32.5039 31.2002 32.3125 31.6423 32.1758 32.1618C32.0482 32.6814 31.9844 33.2693 31.9844 33.9255ZM28.1562 33.9255C28.1562 32.7497 28.3385 31.7107 28.7031 30.8083C29.0677 29.8969 29.5599 29.1358 30.1797 28.5251C30.8086 27.9053 31.5378 27.4359 32.3672 27.1169C33.1966 26.7979 34.0716 26.6384 34.9922 26.6384C35.9583 26.6384 36.8424 26.7979 37.6445 27.1169C38.4557 27.4359 39.1484 27.9053 39.7227 28.5251C40.306 29.1358 40.7572 29.8969 41.0762 30.8083C41.3952 31.7107 41.5547 32.7497 41.5547 33.9255C41.5547 35.1013 41.3724 36.1449 41.0078 37.0564C40.6432 37.9587 40.1465 38.7198 39.5176 39.3396C38.8978 39.9502 38.1732 40.4151 37.3438 40.7341C36.5143 41.044 35.6393 41.1989 34.7188 41.1989C33.7526 41.1989 32.8685 41.044 32.0664 40.7341C31.2643 40.4151 30.5716 39.9502 29.9883 39.3396C29.4141 38.7198 28.9629 37.9587 28.6348 37.0564C28.3158 36.1449 28.1562 35.1013 28.1562 33.9255ZM54.2695 40.8571V33.3376C54.2695 32.7087 54.2285 32.1801 54.1465 31.7517C54.0645 31.3233 53.9368 30.9815 53.7637 30.7263C53.5905 30.462 53.3672 30.2751 53.0938 30.1657C52.8294 30.0473 52.515 29.988 52.1504 29.988C51.7585 29.988 51.3757 30.0746 51.002 30.2478C50.6283 30.4209 50.2819 30.6488 49.9629 30.9314C49.6439 31.2139 49.3659 31.5284 49.1289 31.8747C48.8919 32.2211 48.7142 32.572 48.5957 32.9275V40.8571H44.7676V32.4489C44.7676 31.1 44.6901 29.9607 44.5352 29.031C44.3893 28.0922 44.2389 27.3858 44.084 26.9118H47.8438C47.8984 27.0486 47.9531 27.2308 48.0078 27.4587C48.0625 27.6775 48.1126 27.9099 48.1582 28.156C48.2038 28.393 48.2448 28.6299 48.2812 28.8669L48.3906 29.4411C48.8281 28.9489 49.2565 28.5251 49.6758 28.1696C50.0951 27.8142 50.5189 27.5225 50.9473 27.2946C51.3757 27.0668 51.8132 26.9027 52.2598 26.8025C52.7064 26.6931 53.1712 26.6384 53.6543 26.6384C54.347 26.6384 54.9668 26.7569 55.5137 26.9939C56.0697 27.2308 56.5391 27.5863 56.9219 28.0603C57.3047 28.5342 57.5964 29.1267 57.7969 29.8376C57.9974 30.5486 58.0977 31.3734 58.0977 32.3122V40.8571H54.2695ZM64.8789 33.9255C64.8789 34.5818 64.9382 35.1696 65.0566 35.6892C65.1842 36.1996 65.3665 36.6371 65.6035 37.0017C65.8496 37.3663 66.1504 37.6443 66.5059 37.8357C66.8704 38.0271 67.2852 38.1228 67.75 38.1228C68.1875 38.1228 68.584 38.0271 68.9395 37.8357C69.2949 37.6443 69.5957 37.3663 69.8418 37.0017C70.097 36.6371 70.2884 36.1996 70.416 35.6892C70.5527 35.1696 70.6211 34.5818 70.6211 33.9255C70.6211 32.613 70.375 31.5831 69.8828 30.8357C69.3997 30.0883 68.6888 29.7146 67.75 29.7146C67.3125 29.7146 66.916 29.8103 66.5605 30.0017C66.2051 30.1931 65.8997 30.4711 65.6445 30.8357C65.3984 31.2002 65.207 31.6423 65.0703 32.1618C64.9427 32.6814 64.8789 33.2693 64.8789 33.9255ZM61.0508 33.9255C61.0508 32.7497 61.2331 31.7107 61.5977 30.8083C61.9622 29.8969 62.4544 29.1358 63.0742 28.5251C63.7031 27.9053 64.4323 27.4359 65.2617 27.1169C66.0911 26.7979 66.9661 26.6384 67.8867 26.6384C68.8529 26.6384 69.737 26.7979 70.5391 27.1169C71.3503 27.4359 72.043 27.9053 72.6172 28.5251C73.2005 29.1358 73.6517 29.8969 73.9707 30.8083C74.2897 31.7107 74.4492 32.7497 74.4492 33.9255C74.4492 35.1013 74.2669 36.1449 73.9023 37.0564C73.5378 37.9587 73.041 38.7198 72.4121 39.3396C71.7923 39.9502 71.0677 40.4151 70.2383 40.7341C69.4089 41.044 68.5339 41.1989 67.6133 41.1989C66.6471 41.1989 65.763 41.044 64.9609 40.7341C64.1589 40.4151 63.4661 39.9502 62.8828 39.3396C62.3086 38.7198 61.8574 37.9587 61.5293 37.0564C61.2103 36.1449 61.0508 35.1013 61.0508 33.9255ZM85.4551 34.6364V25.2302C85.4551 24.5922 85.446 23.9997 85.4277 23.4529C85.4186 22.8969 85.4004 22.4001 85.373 21.9626C85.3457 21.5251 85.3047 21.1696 85.25 20.8962C85.4505 20.8871 85.7057 20.878 86.0156 20.8689C86.3346 20.8506 86.681 20.837 87.0547 20.8279C87.4375 20.8187 87.8385 20.8096 88.2578 20.8005C88.6771 20.7914 89.0964 20.7868 89.5156 20.7868C89.9349 20.7777 90.3405 20.7732 90.7324 20.7732C91.1243 20.764 91.4844 20.7595 91.8125 20.7595C92.4414 20.7595 93.125 20.8051 93.8633 20.8962C94.6107 20.9874 95.3581 21.1651 96.1055 21.4294C96.862 21.6846 97.5866 22.0446 98.2793 22.5095C98.9811 22.9652 99.6009 23.5622 100.139 24.3005C100.686 25.0388 101.118 25.9366 101.438 26.9939C101.766 28.0512 101.93 29.2999 101.93 30.74C101.93 32.098 101.77 33.2966 101.451 34.3357C101.132 35.3656 100.704 36.2588 100.166 37.0154C99.6374 37.7719 99.0221 38.4053 98.3203 38.9157C97.6185 39.4262 96.8802 39.8363 96.1055 40.1462C95.3398 40.4561 94.5605 40.6749 93.7676 40.8025C92.9746 40.9301 92.2272 40.9939 91.5254 40.9939C91.2884 40.9939 91.0195 40.9893 90.7188 40.9802C90.418 40.9802 90.099 40.9756 89.7617 40.9665C89.4245 40.9665 89.0781 40.962 88.7227 40.9529C88.3763 40.9437 88.0345 40.9346 87.6973 40.9255C86.9134 40.9073 86.0977 40.8845 85.25 40.8571C85.3047 40.5837 85.3411 40.2328 85.3594 39.8044C85.3867 39.376 85.4049 38.893 85.4141 38.3552C85.4323 37.8174 85.4414 37.2341 85.4414 36.6052C85.4505 35.9672 85.4551 35.3109 85.4551 34.6364ZM89.3516 37.6989C89.6159 37.7263 89.9622 37.7582 90.3906 37.7946C90.819 37.822 91.3066 37.8357 91.8535 37.8357C92.6191 37.8357 93.3665 37.7126 94.0957 37.4665C94.8249 37.2204 95.472 36.8285 96.0371 36.2907C96.6113 35.7439 97.0716 35.0375 97.418 34.1716C97.7643 33.3057 97.9375 32.253 97.9375 31.0134C97.9375 29.6553 97.7871 28.516 97.4863 27.5954C97.1947 26.6749 96.7845 25.9366 96.2559 25.3806C95.7272 24.8155 95.0892 24.4144 94.3418 24.1775C93.6035 23.9405 92.7923 23.822 91.9082 23.822C91.7168 23.822 91.5026 23.8265 91.2656 23.8357C91.0378 23.8357 90.8053 23.8402 90.5684 23.8493C90.3314 23.8584 90.1035 23.8676 89.8848 23.8767C89.6751 23.8767 89.4974 23.8812 89.3516 23.8904V37.6989ZM115.752 40.8571C115.688 40.7113 115.62 40.5427 115.547 40.3513C115.474 40.1508 115.401 39.9411 115.328 39.7224C115.264 39.5036 115.201 39.2758 115.137 39.0388C115.082 38.8018 115.036 38.5648 115 38.3279C114.189 39.2667 113.35 39.9821 112.484 40.4743C111.618 40.9574 110.716 41.1989 109.777 41.1989C106.924 41.1989 105.498 39.2393 105.498 35.32V31.2868C105.498 30.8493 105.493 30.4529 105.484 30.0974C105.484 29.7419 105.475 29.4001 105.457 29.072C105.439 28.7348 105.411 28.393 105.375 28.0466C105.339 27.7002 105.288 27.322 105.225 26.9118H109.326V34.4997C109.326 35.1195 109.354 35.6527 109.408 36.0993C109.472 36.5459 109.577 36.9151 109.723 37.2068C109.868 37.4893 110.06 37.6989 110.297 37.8357C110.534 37.9724 110.826 38.0407 111.172 38.0407C111.482 38.0407 111.81 37.9496 112.156 37.7673C112.512 37.585 112.849 37.3526 113.168 37.07C113.496 36.7784 113.792 36.4639 114.057 36.1267C114.321 35.7894 114.521 35.4613 114.658 35.1423V31.2868C114.658 30.8402 114.654 30.4392 114.645 30.0837C114.645 29.7191 114.635 29.3728 114.617 29.0446C114.599 28.7165 114.572 28.3838 114.535 28.0466C114.499 27.7094 114.449 27.3311 114.385 26.9118H118.486V34.7048C118.486 36.0355 118.559 37.2022 118.705 38.2048C118.86 39.1983 119.083 40.0824 119.375 40.8571H115.752ZM126.84 34.363C126.84 34.8005 126.844 35.3155 126.854 35.9079C126.872 36.5004 126.89 37.1019 126.908 37.7126C126.936 38.3233 126.963 38.9066 126.99 39.4626C127.027 40.0186 127.068 40.4834 127.113 40.8571H123.012V25.4079C123.012 24.0772 122.989 22.8741 122.943 21.7986C122.898 20.7139 122.829 19.7751 122.738 18.9821H126.84V34.363ZM141.305 31.0544C140.995 30.8448 140.699 30.6625 140.416 30.5075C140.143 30.3435 139.865 30.2113 139.582 30.1111C139.309 30.0017 139.021 29.9196 138.721 29.865C138.42 29.8103 138.092 29.7829 137.736 29.7829C137.262 29.7829 136.82 29.8786 136.41 30.07C136 30.2614 135.64 30.5394 135.33 30.904C135.029 31.2686 134.792 31.7152 134.619 32.2439C134.446 32.7634 134.359 33.3558 134.359 34.0212C134.359 34.6228 134.437 35.1742 134.592 35.6755C134.756 36.1677 134.984 36.5915 135.275 36.947C135.567 37.2933 135.923 37.5668 136.342 37.7673C136.761 37.9587 137.226 38.0544 137.736 38.0544C138.146 38.0544 138.525 38.0225 138.871 37.9587C139.217 37.8858 139.546 37.7855 139.855 37.6579C140.165 37.5303 140.462 37.3754 140.744 37.1931C141.036 37.0108 141.332 36.8012 141.633 36.5642L142.043 39.9001C141.697 40.1098 141.346 40.2966 140.99 40.4607C140.635 40.6247 140.261 40.7614 139.869 40.8708C139.477 40.9802 139.062 41.0622 138.625 41.1169C138.188 41.1716 137.714 41.1989 137.203 41.1989C136.283 41.1989 135.417 41.044 134.605 40.7341C133.794 40.4242 133.088 39.9685 132.486 39.3669C131.885 38.7654 131.406 38.0271 131.051 37.1521C130.704 36.2771 130.531 35.279 130.531 34.1579C130.531 33.0915 130.7 32.1026 131.037 31.1911C131.374 30.2706 131.853 29.473 132.473 28.7986C133.092 28.1241 133.84 27.5954 134.715 27.2126C135.599 26.8298 136.583 26.6384 137.668 26.6384C138.579 26.6384 139.386 26.7341 140.088 26.9255C140.799 27.1169 141.405 27.3448 141.906 27.6091L141.305 31.0544ZM145.256 21.9216C145.256 21.5752 145.315 21.2562 145.434 20.9646C145.552 20.6729 145.716 20.4223 145.926 20.2126C146.145 19.9939 146.4 19.8252 146.691 19.7068C146.983 19.5883 147.302 19.529 147.648 19.529C147.995 19.529 148.314 19.5883 148.605 19.7068C148.897 19.8252 149.148 19.9939 149.357 20.2126C149.576 20.4223 149.745 20.6729 149.863 20.9646C149.982 21.2562 150.041 21.5752 150.041 21.9216C150.041 22.2771 149.982 22.6006 149.863 22.8923C149.745 23.184 149.576 23.4392 149.357 23.6579C149.148 23.8676 148.897 24.0316 148.605 24.1501C148.314 24.2595 147.995 24.3142 147.648 24.3142C147.302 24.3142 146.983 24.2595 146.691 24.1501C146.4 24.0316 146.145 23.8676 145.926 23.6579C145.716 23.4392 145.552 23.184 145.434 22.8923C145.315 22.6006 145.256 22.2771 145.256 21.9216ZM149.562 26.9118V34.363C149.562 34.8005 149.567 35.32 149.576 35.9216C149.594 36.514 149.613 37.1156 149.631 37.7263C149.658 38.337 149.686 38.9203 149.713 39.4763C149.749 40.0323 149.79 40.4926 149.836 40.8571H145.734V33.6111C145.734 32.9457 145.73 32.2894 145.721 31.6423C145.721 30.9952 145.712 30.3845 145.693 29.8103C145.684 29.2269 145.666 28.6892 145.639 28.197C145.611 27.6957 145.575 27.2673 145.529 26.9118H149.562Z" fill="black"/>
<defs>
<linearGradient id="paint0_linear_136_16" x1="91.8519" y1="19.7143" x2="100.523" y2="65.1036" gradientUnits="userSpaceOnUse">
<stop stop-color="#CDB38B" stop-opacity="0"/>
<stop offset="1" stop-color="#A5D5DF" stop-opacity="0.72"/>
</linearGradient>
</defs>
</svg>
