<svg width="189" height="70" viewBox="0 0 189 70" fill="none" xmlns="http://www.w3.org/2000/svg">
<mask id="path-1-inside-1_136_16" fill="white">
<path d="M0 35C0 15.67 15.67 0 35 0H154C173.33 0 189 15.67 189 35C189 54.33 173.33 70 154 70H35C15.67 70 0 54.33 0 35Z"/>
</mask>
<path d="M0 35C0 15.67 15.67 0 35 0H154C173.33 0 189 15.67 189 35C189 54.33 173.33 70 154 70H35C15.67 70 0 54.33 0 35Z" fill="url(#paint0_linear_136_16)"/>
<path d="M0 0H189H0ZM192 36.5C192 56.6584 175.658 73 155.5 73H38C17.0132 73 0 55.9868 0 35C0 52.6731 15.67 67 35 67H154C171.673 67 186 52.6731 186 35L192 36.5ZM0 70V0V70ZM155.5 0C175.658 0 192 16.3416 192 36.5C192 56.6584 175.658 73 155.5 73L154 67C171.673 67 186 52.6731 186 35C186 15.67 171.673 0 154 0H155.5Z" fill="#272727" mask="url(#path-1-inside-1_136_16)"/>
<path d="M31.6406 40.2812C31.6406 41.25 31.4479 42.1562 31.0625 43C30.6875 43.8333 30.1094 44.5625 29.3281 45.1875C28.5469 45.8021 27.5521 46.2865 26.3438 46.6406C25.1354 46.9844 23.7031 47.1562 22.0469 47.1562C21.1406 47.1562 20.2396 47.1458 19.3438 47.125C18.4583 47.1146 17.6562 47.099 16.9375 47.0781C16.0938 47.0573 15.2917 47.0312 14.5312 47C14.5938 46.6875 14.6406 46.2865 14.6719 45.7969C14.7031 45.3073 14.724 44.7552 14.7344 44.1406C14.7552 43.526 14.7656 42.8594 14.7656 42.1406V29.1406C14.7656 28.4115 14.7552 27.7344 14.7344 27.1094C14.724 26.474 14.7031 25.9062 14.6719 25.4062C14.6406 24.9062 14.5938 24.5 14.5312 24.1875C14.9167 24.1667 15.3698 24.1458 15.8906 24.125C16.4115 24.1042 16.9844 24.0885 17.6094 24.0781C18.2344 24.0573 18.901 24.0469 19.6094 24.0469C20.3177 24.0365 21.0469 24.0312 21.7969 24.0312C23.0573 24.0312 24.2135 24.1302 25.2656 24.3281C26.3281 24.5156 27.2448 24.8333 28.0156 25.2812C28.7865 25.7188 29.3854 26.2969 29.8125 27.0156C30.25 27.7344 30.4688 28.6146 30.4688 29.6562C30.4688 30.2917 30.3698 30.8646 30.1719 31.375C29.9844 31.8854 29.724 32.3438 29.3906 32.75C29.0573 33.1458 28.6667 33.4896 28.2188 33.7812C27.7812 34.0625 27.3073 34.3021 26.7969 34.5C27.3802 34.6562 27.9583 34.8698 28.5312 35.1406C29.1146 35.401 29.6354 35.7552 30.0938 36.2031C30.5521 36.651 30.9219 37.2083 31.2031 37.875C31.4948 38.5312 31.6406 39.3333 31.6406 40.2812ZM19.2188 43.5625C19.4792 43.5833 19.875 43.6042 20.4062 43.625C20.9375 43.6354 21.5938 43.6406 22.375 43.6406C23.0521 43.6406 23.6927 43.5833 24.2969 43.4688C24.9115 43.3438 25.4427 43.1406 25.8906 42.8594C26.349 42.5781 26.7083 42.2031 26.9688 41.7344C27.2396 41.2656 27.375 40.6771 27.375 39.9688C27.375 38.8958 26.9271 38.0885 26.0312 37.5469C25.1458 36.9948 23.8802 36.7188 22.2344 36.7188H19.2188V43.5625ZM19.2188 33.3281H21.6406C23.1302 33.3281 24.2604 33.0521 25.0312 32.5C25.8125 31.9375 26.2031 31.1615 26.2031 30.1719C26.2031 29.2448 25.875 28.5573 25.2188 28.1094C24.5625 27.651 23.5052 27.4219 22.0469 27.4219C21.5052 27.4219 20.9688 27.4323 20.4375 27.4531C19.9167 27.4635 19.5104 27.4792 19.2188 27.5V33.3281ZM39.625 39.0781C39.625 39.8281 39.6927 40.5 39.8281 41.0938C39.974 41.6771 40.1823 42.1771 40.4531 42.5938C40.7344 43.0104 41.0781 43.3281 41.4844 43.5469C41.901 43.7656 42.375 43.875 42.9062 43.875C43.4062 43.875 43.8594 43.7656 44.2656 43.5469C44.6719 43.3281 45.0156 43.0104 45.2969 42.5938C45.5885 42.1771 45.8073 41.6771 45.9531 41.0938C46.1094 40.5 46.1875 39.8281 46.1875 39.0781C46.1875 37.5781 45.9062 36.401 45.3438 35.5469C44.7917 34.6927 43.9792 34.2656 42.9062 34.2656C42.4062 34.2656 41.9531 34.375 41.5469 34.5938C41.1406 34.8125 40.7917 35.1302 40.5 35.5469C40.2188 35.9635 40 36.4688 39.8438 37.0625C39.6979 37.6562 39.625 38.3281 39.625 39.0781ZM35.25 39.0781C35.25 37.7344 35.4583 36.5469 35.875 35.5156C36.2917 34.474 36.8542 33.6042 37.5625 32.9062C38.2812 32.1979 39.1146 31.6615 40.0625 31.2969C41.0104 30.9323 42.0104 30.75 43.0625 30.75C44.1667 30.75 45.1771 30.9323 46.0938 31.2969C47.0208 31.6615 47.8125 32.1979 48.4688 32.9062C49.1354 33.6042 49.651 34.474 50.0156 35.5156C50.3802 36.5469 50.5625 37.7344 50.5625 39.0781C50.5625 40.4219 50.3542 41.6146 49.9375 42.6562C49.5208 43.6875 48.9531 44.5573 48.2344 45.2656C47.526 45.9635 46.6979 46.4948 45.75 46.8594C44.8021 47.2135 43.8021 47.3906 42.75 47.3906C41.6458 47.3906 40.6354 47.2135 39.7188 46.8594C38.8021 46.4948 38.0104 45.9635 37.3438 45.2656C36.6875 44.5573 36.1719 43.6875 35.7969 42.6562C35.4323 41.6146 35.25 40.4219 35.25 39.0781ZM65.0938 47V38.4062C65.0938 37.6875 65.0469 37.0833 64.9531 36.5938C64.8594 36.1042 64.7135 35.7135 64.5156 35.4219C64.3177 35.1198 64.0625 34.9062 63.75 34.7812C63.4479 34.6458 63.0885 34.5781 62.6719 34.5781C62.224 34.5781 61.7865 34.6771 61.3594 34.875C60.9323 35.0729 60.5365 35.3333 60.1719 35.6562C59.8073 35.9792 59.4896 36.3385 59.2188 36.7344C58.9479 37.1302 58.7448 37.5312 58.6094 37.9375V47H54.2344V37.3906C54.2344 35.849 54.1458 34.5469 53.9688 33.4844C53.8021 32.4115 53.6302 31.6042 53.4531 31.0625H57.75C57.8125 31.2188 57.875 31.4271 57.9375 31.6875C58 31.9375 58.0573 32.2031 58.1094 32.4844C58.1615 32.7552 58.2083 33.026 58.25 33.2969L58.375 33.9531C58.875 33.3906 59.3646 32.9062 59.8438 32.5C60.3229 32.0938 60.8073 31.7604 61.2969 31.5C61.7865 31.2396 62.2865 31.0521 62.7969 30.9375C63.3073 30.8125 63.8385 30.75 64.3906 30.75C65.1823 30.75 65.8906 30.8854 66.5156 31.1562C67.151 31.4271 67.6875 31.8333 68.125 32.375C68.5625 32.9167 68.8958 33.5938 69.125 34.4062C69.3542 35.2188 69.4688 36.1615 69.4688 37.2344V47H65.0938ZM77.2188 39.0781C77.2188 39.8281 77.2865 40.5 77.4219 41.0938C77.5677 41.6771 77.776 42.1771 78.0469 42.5938C78.3281 43.0104 78.6719 43.3281 79.0781 43.5469C79.4948 43.7656 79.9688 43.875 80.5 43.875C81 43.875 81.4531 43.7656 81.8594 43.5469C82.2656 43.3281 82.6094 43.0104 82.8906 42.5938C83.1823 42.1771 83.401 41.6771 83.5469 41.0938C83.7031 40.5 83.7812 39.8281 83.7812 39.0781C83.7812 37.5781 83.5 36.401 82.9375 35.5469C82.3854 34.6927 81.5729 34.2656 80.5 34.2656C80 34.2656 79.5469 34.375 79.1406 34.5938C78.7344 34.8125 78.3854 35.1302 78.0938 35.5469C77.8125 35.9635 77.5938 36.4688 77.4375 37.0625C77.2917 37.6562 77.2188 38.3281 77.2188 39.0781ZM72.8438 39.0781C72.8438 37.7344 73.0521 36.5469 73.4688 35.5156C73.8854 34.474 74.4479 33.6042 75.1562 32.9062C75.875 32.1979 76.7083 31.6615 77.6562 31.2969C78.6042 30.9323 79.6042 30.75 80.6562 30.75C81.7604 30.75 82.7708 30.9323 83.6875 31.2969C84.6146 31.6615 85.4062 32.1979 86.0625 32.9062C86.7292 33.6042 87.2448 34.474 87.6094 35.5156C87.974 36.5469 88.1562 37.7344 88.1562 39.0781C88.1562 40.4219 87.9479 41.6146 87.5312 42.6562C87.1146 43.6875 86.5469 44.5573 85.8281 45.2656C85.1198 45.9635 84.2917 46.4948 83.3438 46.8594C82.3958 47.2135 81.3958 47.3906 80.3438 47.3906C79.2396 47.3906 78.2292 47.2135 77.3125 46.8594C76.3958 46.4948 75.6042 45.9635 74.9375 45.2656C74.2812 44.5573 73.7656 43.6875 73.3906 42.6562C73.026 41.6146 72.8438 40.4219 72.8438 39.0781ZM100.734 39.8906V29.1406C100.734 28.4115 100.724 27.7344 100.703 27.1094C100.693 26.474 100.672 25.9062 100.641 25.4062C100.609 24.9062 100.562 24.5 100.5 24.1875C100.729 24.1771 101.021 24.1667 101.375 24.1562C101.74 24.1354 102.135 24.1198 102.562 24.1094C103 24.099 103.458 24.0885 103.938 24.0781C104.417 24.0677 104.896 24.0625 105.375 24.0625C105.854 24.0521 106.318 24.0469 106.766 24.0469C107.214 24.0365 107.625 24.0312 108 24.0312C108.719 24.0312 109.5 24.0833 110.344 24.1875C111.198 24.2917 112.052 24.4948 112.906 24.7969C113.771 25.0885 114.599 25.5 115.391 26.0312C116.193 26.5521 116.901 27.2344 117.516 28.0781C118.141 28.9219 118.635 29.9479 119 31.1562C119.375 32.3646 119.562 33.7917 119.562 35.4375C119.562 36.9896 119.38 38.3594 119.016 39.5469C118.651 40.724 118.161 41.7448 117.547 42.6094C116.943 43.474 116.24 44.1979 115.438 44.7812C114.635 45.3646 113.792 45.8333 112.906 46.1875C112.031 46.5417 111.141 46.7917 110.234 46.9375C109.328 47.0833 108.474 47.1562 107.672 47.1562C107.401 47.1562 107.094 47.151 106.75 47.1406C106.406 47.1406 106.042 47.1354 105.656 47.125C105.271 47.125 104.875 47.1198 104.469 47.1094C104.073 47.099 103.682 47.0885 103.297 47.0781C102.401 47.0573 101.469 47.0312 100.5 47C100.562 46.6875 100.604 46.2865 100.625 45.7969C100.656 45.3073 100.677 44.7552 100.688 44.1406C100.708 43.526 100.719 42.8594 100.719 42.1406C100.729 41.4115 100.734 40.6615 100.734 39.8906ZM105.188 43.3906C105.49 43.4219 105.885 43.4583 106.375 43.5C106.865 43.5312 107.422 43.5469 108.047 43.5469C108.922 43.5469 109.776 43.4062 110.609 43.125C111.443 42.8438 112.182 42.3958 112.828 41.7812C113.484 41.1562 114.01 40.349 114.406 39.3594C114.802 38.3698 115 37.1667 115 35.75C115 34.1979 114.828 32.8958 114.484 31.8438C114.151 30.7917 113.682 29.9479 113.078 29.3125C112.474 28.6667 111.745 28.2083 110.891 27.9375C110.047 27.6667 109.12 27.5312 108.109 27.5312C107.891 27.5312 107.646 27.5365 107.375 27.5469C107.115 27.5469 106.849 27.5521 106.578 27.5625C106.307 27.5729 106.047 27.5833 105.797 27.5938C105.557 27.5938 105.354 27.599 105.188 27.6094V43.3906ZM135.359 47C135.286 46.8333 135.208 46.6406 135.125 46.4219C135.042 46.1927 134.958 45.9531 134.875 45.7031C134.802 45.4531 134.729 45.1927 134.656 44.9219C134.594 44.651 134.542 44.3802 134.5 44.1094C133.573 45.1823 132.615 46 131.625 46.5625C130.635 47.1146 129.604 47.3906 128.531 47.3906C125.271 47.3906 123.641 45.151 123.641 40.6719V36.0625C123.641 35.5625 123.635 35.1094 123.625 34.7031C123.625 34.2969 123.615 33.9062 123.594 33.5312C123.573 33.1458 123.542 32.7552 123.5 32.3594C123.458 31.9635 123.401 31.5312 123.328 31.0625H128.016V39.7344C128.016 40.4427 128.047 41.0521 128.109 41.5625C128.182 42.0729 128.302 42.4948 128.469 42.8281C128.635 43.151 128.854 43.3906 129.125 43.5469C129.396 43.7031 129.729 43.7812 130.125 43.7812C130.479 43.7812 130.854 43.6771 131.25 43.4688C131.656 43.2604 132.042 42.9948 132.406 42.6719C132.781 42.3385 133.12 41.9792 133.422 41.5938C133.724 41.2083 133.953 40.8333 134.109 40.4688V36.0625C134.109 35.5521 134.104 35.0938 134.094 34.6875C134.094 34.2708 134.083 33.875 134.062 33.5C134.042 33.125 134.01 32.7448 133.969 32.3594C133.927 31.974 133.87 31.5417 133.797 31.0625H138.484V39.9688C138.484 41.4896 138.568 42.8229 138.734 43.9688C138.911 45.1042 139.167 46.1146 139.5 47H135.359ZM148.031 39.5781C148.031 40.0781 148.036 40.6667 148.047 41.3438C148.068 42.0208 148.089 42.7083 148.109 43.4062C148.141 44.1042 148.172 44.7708 148.203 45.4062C148.245 46.0417 148.292 46.5729 148.344 47H143.656V29.3438C143.656 27.8229 143.63 26.4479 143.578 25.2188C143.526 23.9792 143.448 22.9062 143.344 22H148.031V39.5781ZM164.562 35.7969C164.208 35.5573 163.87 35.349 163.547 35.1719C163.234 34.9844 162.917 34.8333 162.594 34.7188C162.281 34.5938 161.953 34.5 161.609 34.4375C161.266 34.375 160.891 34.3438 160.484 34.3438C159.943 34.3438 159.438 34.4531 158.969 34.6719C158.5 34.8906 158.089 35.2083 157.734 35.625C157.391 36.0417 157.12 36.5521 156.922 37.1562C156.724 37.75 156.625 38.4271 156.625 39.1875C156.625 39.875 156.714 40.5052 156.891 41.0781C157.078 41.6406 157.339 42.125 157.672 42.5312C158.005 42.9271 158.411 43.2396 158.891 43.4688C159.37 43.6875 159.901 43.7969 160.484 43.7969C160.953 43.7969 161.385 43.7604 161.781 43.6875C162.177 43.6042 162.552 43.4896 162.906 43.3438C163.26 43.1979 163.599 43.0208 163.922 42.8125C164.255 42.6042 164.594 42.3646 164.938 42.0938L165.406 45.9062C165.01 46.1458 164.609 46.3594 164.203 46.5469C163.797 46.7344 163.37 46.8906 162.922 47.0156C162.474 47.1406 162 47.2344 161.5 47.2969C161 47.3594 160.458 47.3906 159.875 47.3906C158.823 47.3906 157.833 47.2135 156.906 46.8594C155.979 46.5052 155.172 45.9844 154.484 45.2969C153.797 44.6094 153.25 43.7656 152.844 42.7656C152.448 41.7656 152.25 40.625 152.25 39.3438C152.25 38.125 152.443 36.9948 152.828 35.9531C153.214 34.901 153.76 33.9896 154.469 33.2188C155.177 32.4479 156.031 31.8438 157.031 31.4062C158.042 30.9688 159.167 30.75 160.406 30.75C161.448 30.75 162.37 30.8594 163.172 31.0781C163.984 31.2969 164.677 31.5573 165.25 31.8594L164.562 35.7969ZM169.078 25.3594C169.078 24.9635 169.146 24.599 169.281 24.2656C169.417 23.9323 169.604 23.6458 169.844 23.4062C170.094 23.1562 170.385 22.9635 170.719 22.8281C171.052 22.6927 171.417 22.625 171.812 22.625C172.208 22.625 172.573 22.6927 172.906 22.8281C173.24 22.9635 173.526 23.1562 173.766 23.4062C174.016 23.6458 174.208 23.9323 174.344 24.2656C174.479 24.599 174.547 24.9635 174.547 25.3594C174.547 25.7656 174.479 26.1354 174.344 26.4688C174.208 26.8021 174.016 27.0938 173.766 27.3438C173.526 27.5833 173.24 27.7708 172.906 27.9062C172.573 28.0312 172.208 28.0938 171.812 28.0938C171.417 28.0938 171.052 28.0312 170.719 27.9062C170.385 27.7708 170.094 27.5833 169.844 27.3438C169.604 27.0938 169.417 26.8021 169.281 26.4688C169.146 26.1354 169.078 25.7656 169.078 25.3594ZM174 31.0625V39.5781C174 40.0781 174.005 40.6719 174.016 41.3594C174.036 42.0365 174.057 42.724 174.078 43.4219C174.109 44.1198 174.141 44.7865 174.172 45.4219C174.214 46.0573 174.26 46.5833 174.312 47H169.625V38.7188C169.625 37.9583 169.62 37.2083 169.609 36.4688C169.609 35.7292 169.599 35.0312 169.578 34.375C169.568 33.7083 169.547 33.0938 169.516 32.5312C169.484 31.9583 169.443 31.4688 169.391 31.0625H174Z" fill="black"/>
<defs>
<linearGradient id="paint0_linear_136_16" x1="108.5" y1="23" x2="118.5" y2="76" gradientUnits="userSpaceOnUse">
<stop stop-color="#CDB38B" stop-opacity="0"/>
<stop offset="1" stop-color="#A5D5DF" stop-opacity="0.72"/>
</linearGradient>
</defs>
</svg>
