<svg width="189" height="70" viewBox="0 0 189 70" fill="none" xmlns="http://www.w3.org/2000/svg">
<mask id="path-1-inside-1_136_16" fill="white">
<path d="M0 35C0 15.67 15.67 0 35 0H154C173.33 0 189 15.67 189 35V35C189 54.33 173.33 70 154 70H35C15.67 70 0 54.33 0 35V35Z"/>
</mask>
<path d="M0 35C0 15.67 15.67 0 35 0H154C173.33 0 189 15.67 189 35V35C189 54.33 173.33 70 154 70H35C15.67 70 0 54.33 0 35V35Z" fill="url(#paint0_linear_136_16)"/>
<path d="M0 0H189H0ZM192 36.5C192 56.6584 175.658 73 155.5 73H38C17.0132 73 0 55.9868 0 35C0 52.6731 15.67 67 35 67H154C171.673 67 186 52.6731 186 35L192 36.5ZM0 70V0V70ZM155.5 0C175.658 0 192 16.3416 192 36.5C192 56.6584 175.658 73 155.5 73L154 67C171.673 67 186 52.6731 186 35C186 15.67 171.673 0 154 0H155.5Z" fill="#272727" mask="url(#path-1-inside-1_136_16)"/>
<path d="M27.373 36.52C29.229 36.52 30.8077 36.968 32.109 37.864C33.4103 38.7387 34.061 40.04 34.061 41.768C34.061 43.752 33.261 45.4693 31.661 46.92C30.0823 48.3707 28.1517 49.4693 25.869 50.216C23.6077 50.984 21.485 51.4 19.501 51.464L19.213 50.312C21.9437 49.7573 24.3543 48.808 26.445 47.464C28.557 46.12 29.613 44.3067 29.613 42.024C29.613 41.192 29.3677 40.456 28.877 39.816C28.4077 39.1547 27.789 38.6533 27.021 38.312C26.2743 37.9493 25.4957 37.768 24.685 37.768C23.277 37.768 21.837 38.056 20.365 38.632L20.301 38.472V48.136L16.301 49.448V37.672C16.301 35.5173 16.7703 33.544 17.709 31.752C18.6477 29.96 19.9597 28.552 21.645 27.528C23.3517 26.4827 25.2717 25.96 27.405 25.96C28.493 25.96 29.4103 26.2267 30.157 26.76C30.9037 27.2933 31.277 28.0613 31.277 29.064C31.277 30.408 30.5837 31.784 29.197 33.192C27.8103 34.5787 26.2637 35.752 24.557 36.712L24.621 36.872C25.709 36.6373 26.6263 36.52 27.373 36.52ZM20.301 37.672C22.093 36.8187 23.6397 35.7627 24.941 34.504C26.2637 33.2453 26.925 31.848 26.925 30.312C26.925 29.5227 26.7223 28.8933 26.317 28.424C25.9117 27.9333 25.357 27.688 24.653 27.688C23.5863 27.688 22.7223 28.1467 22.061 29.064C21.421 29.96 20.9623 31.0373 20.685 32.296C20.429 33.5547 20.301 34.76 20.301 35.912V37.672ZM44.5063 33.384C43.0983 34.3867 41.9889 35.528 41.1783 36.808C40.3889 38.0667 39.9943 39.5493 39.9943 41.256C39.9943 42.1947 40.1756 43.144 40.5383 44.104C40.9009 45.064 41.4343 45.864 42.1383 46.504C42.8423 47.1227 43.6849 47.432 44.6663 47.432C45.9036 47.432 46.8956 46.984 47.6423 46.088C48.4103 45.192 48.7943 44.0827 48.7943 42.76C48.7943 41.7573 48.5276 40.744 47.9943 39.72C47.4823 38.6747 46.7889 37.8 45.9143 37.096C45.0396 36.3707 44.1009 35.9653 43.0983 35.88C43.5463 35.3893 44.0263 34.9413 44.5383 34.536C45.0716 34.1307 45.7329 33.64 46.5223 33.064C48.0583 33.576 49.2743 34.5253 50.1703 35.912C51.0876 37.2987 51.5463 38.824 51.5463 40.488C51.5463 41.96 51.2156 43.3893 50.5543 44.776C49.9143 46.1627 48.9756 47.2933 47.7383 48.168C46.5223 49.0213 45.1036 49.448 43.4823 49.448C42.1383 49.448 40.9009 49.1387 39.7703 48.52C38.6609 47.88 37.7756 47.016 37.1143 45.928C36.4529 44.8187 36.1223 43.6027 36.1223 42.28C36.1223 39.9973 36.8369 37.992 38.2663 36.264C39.7169 34.536 41.5943 33.3307 43.8983 32.648L44.5063 33.384ZM66.798 32.712C67.5447 32.712 68.0887 32.936 68.43 33.384C68.7713 33.8107 68.9847 34.3227 69.07 34.92C69.1553 35.496 69.198 36.2427 69.198 37.16V46.056C69.198 46.312 69.2727 46.5573 69.422 46.792C69.5927 47.0053 69.7953 47.112 70.03 47.112C70.35 47.112 70.6273 47.016 70.862 46.824C71.118 46.6107 71.3847 46.3333 71.662 45.992L72.206 46.6C71.822 47.3467 71.2887 47.976 70.606 48.488C69.9447 48.9787 69.23 49.224 68.462 49.224C67.438 49.224 66.67 48.936 66.158 48.36C65.646 47.7627 65.39 46.9307 65.39 45.864V37.48C65.39 37.1813 65.358 36.9253 65.294 36.712C65.23 36.4987 65.0807 36.392 64.846 36.392C64.1207 36.392 63.3847 37.1707 62.638 38.728C61.8913 40.264 61.262 42.0347 60.75 44.04C60.238 46.0453 59.982 47.56 59.982 48.584L56.238 49.416V35.976C56.238 35.656 56.1633 35.3893 56.014 35.176C55.8647 34.9627 55.6513 34.856 55.374 34.856C55.0753 34.856 54.7767 34.984 54.478 35.24C54.2007 35.4747 53.966 35.752 53.774 36.072L53.198 35.432C53.518 34.6853 54.0193 34.0453 54.702 33.512C55.3847 32.9787 56.1207 32.712 56.91 32.712C57.9767 32.712 58.7553 33.0107 59.246 33.608C59.7367 34.184 59.982 34.9947 59.982 36.04V42.216H60.11C60.686 39.848 61.5393 37.672 62.67 35.688C63.822 33.704 65.198 32.712 66.798 32.712ZM82.1625 33.384C80.7545 34.3867 79.6452 35.528 78.8345 36.808C78.0452 38.0667 77.6505 39.5493 77.6505 41.256C77.6505 42.1947 77.8318 43.144 78.1945 44.104C78.5572 45.064 79.0905 45.864 79.7945 46.504C80.4985 47.1227 81.3412 47.432 82.3225 47.432C83.5598 47.432 84.5518 46.984 85.2985 46.088C86.0665 45.192 86.4505 44.0827 86.4505 42.76C86.4505 41.7573 86.1838 40.744 85.6505 39.72C85.1385 38.6747 84.4452 37.8 83.5705 37.096C82.6958 36.3707 81.7572 35.9653 80.7545 35.88C81.2025 35.3893 81.6825 34.9413 82.1945 34.536C82.7278 34.1307 83.3892 33.64 84.1785 33.064C85.7145 33.576 86.9305 34.5253 87.8265 35.912C88.7438 37.2987 89.2025 38.824 89.2025 40.488C89.2025 41.96 88.8718 43.3893 88.2105 44.776C87.5705 46.1627 86.6318 47.2933 85.3945 48.168C84.1785 49.0213 82.7598 49.448 81.1385 49.448C79.7945 49.448 78.5572 49.1387 77.4265 48.52C76.3172 47.88 75.4318 47.016 74.7705 45.928C74.1092 44.8187 73.7785 43.6027 73.7785 42.28C73.7785 39.9973 74.4932 37.992 75.9225 36.264C77.3732 34.536 79.2505 33.3307 81.5545 32.648L82.1625 33.384ZM109.537 25.736C112.289 25.736 114.38 26.4933 115.809 28.008C117.239 29.5227 117.953 31.592 117.953 34.216C117.953 37.032 117.057 39.5707 115.265 41.832C113.473 44.0933 111.191 45.8853 108.417 47.208C105.665 48.5093 102.881 49.2453 100.065 49.416V31.496L104.033 30.184V47.4C105.932 46.824 107.607 45.928 109.057 44.712C110.508 43.4747 111.639 42.0027 112.449 40.296C113.281 38.5893 113.697 36.7333 113.697 34.728C113.697 32.616 113.164 30.9307 112.097 29.672C111.052 28.4133 109.601 27.784 107.745 27.784C106.273 27.784 104.737 28.136 103.137 28.84C101.559 29.5227 100.129 30.408 98.8493 31.496L98.0493 30.568C99.4146 29.224 101.153 28.0827 103.265 27.144C105.377 26.2053 107.468 25.736 109.537 25.736ZM134.878 46.024C134.878 46.344 134.953 46.6107 135.102 46.824C135.251 47.016 135.465 47.112 135.742 47.112C136.169 47.112 136.691 46.7493 137.31 46.024L137.854 46.6C137.321 47.688 136.659 48.4027 135.87 48.744C135.081 49.064 134.483 49.224 134.078 49.224C133.289 49.224 132.681 49.0427 132.254 48.68C131.849 48.3173 131.55 47.72 131.358 46.888C131.187 46.0347 131.102 44.84 131.102 43.304V42.344L130.974 40.136H130.846C130.334 42.4187 129.566 44.5307 128.542 46.472C127.539 48.4133 126.217 49.384 124.574 49.384C123.849 49.384 123.305 49.2133 122.942 48.872C122.601 48.5093 122.377 48.0293 122.27 47.432C122.185 46.8347 122.142 46.0133 122.142 44.968V36.072C122.142 35.7093 122.067 35.432 121.918 35.24C121.769 35.0267 121.566 34.92 121.31 34.92C120.798 34.92 120.254 35.304 119.678 36.072L119.134 35.464C119.497 34.6747 119.955 34.0773 120.51 33.672C121.065 33.2667 121.545 33.0107 121.95 32.904C122.377 32.7973 122.654 32.744 122.782 32.744C123.934 32.744 124.755 33.064 125.246 33.704C125.737 34.3227 125.982 35.112 125.982 36.072V44.616C125.982 45 126.025 45.2987 126.11 45.512C126.217 45.7253 126.345 45.832 126.494 45.832C127.262 45.832 127.977 45.064 128.638 43.528C129.299 41.9707 129.833 40.2107 130.238 38.248C130.643 36.264 130.846 34.824 130.846 33.928L134.878 32.584V46.024ZM144.778 46.056C144.778 46.3333 144.842 46.5787 144.97 46.792C145.119 47.0053 145.343 47.112 145.642 47.112C145.941 47.112 146.239 46.9947 146.538 46.76C146.858 46.5253 147.114 46.2693 147.306 45.992L147.882 46.6C147.519 47.3253 146.986 47.944 146.282 48.456C145.599 48.968 144.863 49.224 144.074 49.224C142.005 49.224 140.97 48.104 140.97 45.864V20.776L144.778 19.4V46.056ZM158.585 32.808C159.566 32.808 160.473 33.064 161.305 33.576C162.158 34.088 162.819 34.8773 163.289 35.944L159.961 37.736C159.747 36.84 159.363 36.1467 158.809 35.656C158.254 35.144 157.657 34.888 157.017 34.888C156.163 34.888 155.406 35.1547 154.745 35.688C154.083 36.2 153.571 36.872 153.209 37.704C152.867 38.536 152.697 39.4107 152.697 40.328C152.697 41.7573 152.921 42.9947 153.369 44.04C153.817 45.0853 154.425 45.8853 155.193 46.44C155.982 46.9733 156.867 47.24 157.849 47.24C159.811 47.24 161.699 46.12 163.513 43.88L164.249 44.52C163.182 46.0773 162.041 47.2827 160.825 48.136C159.63 48.968 158.201 49.384 156.536 49.384C155.193 49.384 153.987 49.0747 152.921 48.456C151.854 47.816 151.011 46.9307 150.393 45.8C149.795 44.648 149.497 43.3253 149.497 41.832C149.497 40.1893 149.859 38.6853 150.585 37.32C151.31 35.9333 152.355 34.8347 153.721 34.024C155.107 33.2133 156.729 32.808 158.585 32.808ZM170.41 29.64L168.394 30.28L167.082 23.592L171.53 22.088L170.41 29.64ZM171.434 46.056C171.434 46.376 171.509 46.632 171.658 46.824C171.808 47.016 172.01 47.112 172.266 47.112C172.8 47.112 173.344 46.7387 173.898 45.992L174.474 46.6C174.005 47.4533 173.397 48.104 172.65 48.552C171.925 49 171.2 49.224 170.474 49.224C168.533 49.224 167.562 48.104 167.562 45.864V34.344L171.434 33V46.056Z" fill="black"/>
<defs>
<linearGradient id="paint0_linear_136_16" x1="108.5" y1="23" x2="118.5" y2="76" gradientUnits="userSpaceOnUse">
<stop stop-color="#CDB38B" stop-opacity="0"/>
<stop offset="1" stop-color="#DFC9A5" stop-opacity="0.72"/>
</linearGradient>
</defs>
</svg>
