<svg width="670" height="576" viewBox="0 0 670 576" fill="none" xmlns="http://www.w3.org/2000/svg">
<g clip-path="url(#clip0_150_2)">
<path d="M669.121 300.622C667.031 349.636 601.525 372.609 583.167 418.103C563.942 465.746 606.579 545.462 560.864 568.906C507.256 596.397 449.718 522.629 389.707 517.314C356.107 514.338 327.297 546.541 293.59 545.234C259.419 543.909 230.168 522.738 198.472 509.901C162.852 495.474 124.223 488.008 93.9256 464.366C60.0967 437.967 29.3521 405.507 13.5633 365.608C-2.90362 323.995 -1.26244 277.876 2.48133 233.28C6.4947 185.472 11.1212 135.845 36.2807 94.9963C61.8818 53.4302 97.4012 5.55004 145.942 0.356475C200.636 -5.49553 239.981 62.5735 294.781 67.3382C336.017 70.9235 369.243 13.3035 409.418 23.2649C448.592 32.9781 455.7 88.847 486.538 114.885C518.57 141.931 563.992 148.696 593.382 178.592C627.314 213.111 671.184 252.262 669.121 300.622Z" fill="#9C7A52"/>
<path d="M187.824 271.085V263.841L219.784 213.273H225.04V224.494H221.489L197.341 262.705V263.273H240.381V271.085H187.824ZM222.057 286V268.884V265.51V213.273H230.438V286H222.057Z" fill="white"/>
<path d="M321.25 286.994C315.9 286.994 311.342 285.538 307.578 282.626C303.814 279.691 300.938 275.441 298.949 269.878C296.96 264.291 295.966 257.544 295.966 249.636C295.966 241.777 296.96 235.065 298.949 229.501C300.961 223.914 303.849 219.653 307.614 216.717C311.402 213.758 315.947 212.278 321.25 212.278C326.553 212.278 331.087 213.758 334.851 216.717C338.639 219.653 341.527 223.914 343.516 229.501C345.528 235.065 346.534 241.777 346.534 249.636C346.534 257.544 345.54 264.291 343.551 269.878C341.562 275.441 338.686 279.691 334.922 282.626C331.158 285.538 326.6 286.994 321.25 286.994ZM321.25 279.182C326.553 279.182 330.672 276.625 333.608 271.511C336.544 266.398 338.011 259.106 338.011 249.636C338.011 243.339 337.337 237.977 335.987 233.55C334.661 229.123 332.744 225.749 330.234 223.429C327.749 221.109 324.754 219.949 321.25 219.949C315.994 219.949 311.887 222.541 308.928 227.726C305.968 232.887 304.489 240.19 304.489 249.636C304.489 255.934 305.152 261.284 306.477 265.688C307.803 270.091 309.709 273.441 312.195 275.737C314.704 278.034 317.723 279.182 321.25 279.182Z" fill="white"/>
<path d="M401.824 273.085V265.841L433.784 215.273H439.04V226.494H435.489L411.341 264.705V265.273H454.381V273.085H401.824ZM436.057 288V270.884V267.51V215.273H444.438V288H436.057Z" fill="white"/>
<path d="M123.43 346.455V361H120.774L114.446 351.845H114.339V361H111.264V346.455H113.963L120.241 355.602H120.369V346.455H123.43ZM129.025 361.206C128.329 361.206 127.709 361.085 127.164 360.844C126.62 360.598 126.189 360.235 125.872 359.757C125.559 359.274 125.403 358.673 125.403 357.953C125.403 357.347 125.514 356.838 125.737 356.426C125.959 356.014 126.262 355.683 126.646 355.432C127.029 355.181 127.465 354.991 127.953 354.864C128.445 354.736 128.961 354.646 129.501 354.594C130.136 354.527 130.647 354.466 131.035 354.409C131.423 354.348 131.705 354.258 131.88 354.139C132.056 354.021 132.143 353.846 132.143 353.614V353.571C132.143 353.121 132.001 352.773 131.717 352.527C131.438 352.281 131.04 352.158 130.524 352.158C129.979 352.158 129.546 352.278 129.224 352.52C128.902 352.757 128.689 353.055 128.585 353.415L125.787 353.188C125.929 352.525 126.208 351.952 126.625 351.469C127.041 350.981 127.579 350.607 128.237 350.347C128.9 350.081 129.667 349.949 130.538 349.949C131.144 349.949 131.724 350.02 132.278 350.162C132.837 350.304 133.332 350.524 133.762 350.822C134.198 351.121 134.541 351.504 134.792 351.973C135.043 352.437 135.169 352.993 135.169 353.642V361H132.299V359.487H132.214C132.039 359.828 131.805 360.129 131.511 360.389C131.217 360.645 130.865 360.846 130.453 360.993C130.041 361.135 129.565 361.206 129.025 361.206ZM129.892 359.118C130.337 359.118 130.73 359.03 131.071 358.855C131.412 358.675 131.679 358.434 131.873 358.131C132.067 357.828 132.164 357.484 132.164 357.101V355.943C132.07 356.005 131.94 356.062 131.774 356.114C131.613 356.161 131.431 356.206 131.227 356.249C131.023 356.286 130.82 356.322 130.616 356.355C130.413 356.384 130.228 356.41 130.062 356.433C129.707 356.485 129.397 356.568 129.132 356.682C128.867 356.795 128.661 356.949 128.514 357.143C128.367 357.333 128.294 357.57 128.294 357.854C128.294 358.266 128.443 358.58 128.741 358.798C129.044 359.011 129.428 359.118 129.892 359.118ZM128.62 348.749L126.937 348.727C126.937 347.823 127.16 347.129 127.605 346.646C128.055 346.163 128.601 345.92 129.245 345.915C129.577 345.915 129.861 345.969 130.098 346.078C130.339 346.182 130.555 346.305 130.744 346.447C130.938 346.589 131.123 346.715 131.298 346.824C131.473 346.928 131.663 346.98 131.866 346.98C132.141 346.975 132.349 346.874 132.491 346.675C132.638 346.471 132.711 346.206 132.711 345.879L134.366 345.929C134.357 346.824 134.129 347.515 133.684 348.003C133.239 348.486 132.697 348.73 132.058 348.734C131.703 348.734 131.404 348.682 131.163 348.578C130.926 348.469 130.718 348.346 130.538 348.209C130.358 348.067 130.183 347.941 130.012 347.832C129.842 347.723 129.65 347.669 129.437 347.669C129.191 347.669 128.992 347.766 128.841 347.96C128.694 348.154 128.62 348.417 128.62 348.749ZM142.445 361.213C141.342 361.213 140.388 360.979 139.583 360.51C138.783 360.036 138.165 359.378 137.729 358.536C137.293 357.688 137.076 356.705 137.076 355.588C137.076 354.461 137.293 353.476 137.729 352.634C138.165 351.786 138.783 351.128 139.583 350.659C140.388 350.186 141.342 349.949 142.445 349.949C143.548 349.949 144.5 350.186 145.3 350.659C146.105 351.128 146.725 351.786 147.161 352.634C147.596 353.476 147.814 354.461 147.814 355.588C147.814 356.705 147.596 357.688 147.161 358.536C146.725 359.378 146.105 360.036 145.3 360.51C144.5 360.979 143.548 361.213 142.445 361.213ZM142.459 358.869C142.961 358.869 143.38 358.727 143.716 358.443C144.052 358.154 144.306 357.761 144.476 357.264C144.651 356.767 144.739 356.201 144.739 355.567C144.739 354.932 144.651 354.366 144.476 353.869C144.306 353.372 144.052 352.979 143.716 352.69C143.38 352.402 142.961 352.257 142.459 352.257C141.953 352.257 141.526 352.402 141.181 352.69C140.84 352.979 140.582 353.372 140.407 353.869C140.236 354.366 140.151 354.932 140.151 355.567C140.151 356.201 140.236 356.767 140.407 357.264C140.582 357.761 140.84 358.154 141.181 358.443C141.526 358.727 141.953 358.869 142.459 358.869ZM159.382 361.213C158.26 361.213 157.294 360.986 156.484 360.531C155.679 360.072 155.059 359.423 154.624 358.585C154.188 357.742 153.97 356.746 153.97 355.595C153.97 354.473 154.188 353.488 154.624 352.641C155.059 351.793 155.672 351.133 156.463 350.659C157.259 350.186 158.191 349.949 159.261 349.949C159.981 349.949 160.651 350.065 161.271 350.297C161.896 350.524 162.441 350.867 162.905 351.327C163.374 351.786 163.738 352.364 163.999 353.06C164.259 353.751 164.389 354.561 164.389 355.489V356.32H155.178V354.445H161.541C161.541 354.009 161.446 353.623 161.257 353.287C161.068 352.951 160.805 352.688 160.469 352.499C160.137 352.304 159.751 352.207 159.311 352.207C158.852 352.207 158.445 352.314 158.089 352.527C157.739 352.735 157.464 353.017 157.266 353.372C157.067 353.723 156.965 354.113 156.96 354.544V356.327C156.96 356.866 157.06 357.333 157.259 357.726C157.462 358.119 157.749 358.422 158.118 358.635C158.487 358.848 158.925 358.955 159.432 358.955C159.768 358.955 160.076 358.907 160.355 358.812C160.634 358.718 160.874 358.576 161.072 358.386C161.271 358.197 161.423 357.965 161.527 357.69L164.325 357.875C164.183 358.547 163.892 359.134 163.452 359.636C163.016 360.134 162.453 360.522 161.761 360.801C161.075 361.076 160.282 361.213 159.382 361.213ZM169.389 354.693V361H166.364V350.091H169.247V352.016H169.375C169.616 351.381 170.021 350.879 170.589 350.51C171.158 350.136 171.847 349.949 172.656 349.949C173.414 349.949 174.074 350.115 174.638 350.446C175.201 350.777 175.639 351.251 175.952 351.866C176.264 352.477 176.42 353.206 176.42 354.054V361H173.395V354.594C173.4 353.926 173.229 353.405 172.884 353.031C172.538 352.652 172.062 352.463 171.456 352.463C171.049 352.463 170.689 352.551 170.376 352.726C170.069 352.901 169.827 353.157 169.652 353.493C169.482 353.824 169.394 354.224 169.389 354.693ZM183.734 361.213C182.617 361.213 181.655 360.976 180.85 360.503C180.05 360.025 179.435 359.362 179.004 358.514C178.578 357.667 178.365 356.691 178.365 355.588C178.365 354.471 178.58 353.491 179.011 352.648C179.447 351.8 180.065 351.14 180.865 350.666C181.665 350.188 182.617 349.949 183.72 349.949C184.672 349.949 185.505 350.122 186.22 350.467C186.935 350.813 187.501 351.298 187.917 351.923C188.334 352.548 188.564 353.282 188.606 354.125H185.751C185.671 353.58 185.458 353.143 185.112 352.811C184.771 352.475 184.324 352.307 183.77 352.307C183.301 352.307 182.891 352.435 182.541 352.69C182.195 352.941 181.925 353.308 181.731 353.791C181.537 354.274 181.44 354.859 181.44 355.545C181.44 356.241 181.535 356.833 181.724 357.321C181.918 357.809 182.19 358.18 182.541 358.436C182.891 358.692 183.301 358.82 183.77 358.82C184.115 358.82 184.425 358.749 184.7 358.607C184.979 358.464 185.209 358.259 185.389 357.989C185.574 357.714 185.694 357.385 185.751 357.001H188.606C188.559 357.835 188.332 358.569 187.924 359.203C187.522 359.833 186.966 360.325 186.255 360.68C185.545 361.036 184.705 361.213 183.734 361.213ZM195.472 361.213C194.369 361.213 193.415 360.979 192.61 360.51C191.81 360.036 191.192 359.378 190.756 358.536C190.321 357.688 190.103 356.705 190.103 355.588C190.103 354.461 190.321 353.476 190.756 352.634C191.192 351.786 191.81 351.128 192.61 350.659C193.415 350.186 194.369 349.949 195.472 349.949C196.576 349.949 197.527 350.186 198.327 350.659C199.132 351.128 199.753 351.786 200.188 352.634C200.624 353.476 200.842 354.461 200.842 355.588C200.842 356.705 200.624 357.688 200.188 358.536C199.753 359.378 199.132 360.036 198.327 360.51C197.527 360.979 196.576 361.213 195.472 361.213ZM195.487 358.869C195.988 358.869 196.407 358.727 196.744 358.443C197.08 358.154 197.333 357.761 197.504 357.264C197.679 356.767 197.766 356.201 197.766 355.567C197.766 354.932 197.679 354.366 197.504 353.869C197.333 353.372 197.08 352.979 196.744 352.69C196.407 352.402 195.988 352.257 195.487 352.257C194.98 352.257 194.554 352.402 194.208 352.69C193.867 352.979 193.609 353.372 193.434 353.869C193.263 354.366 193.178 354.932 193.178 355.567C193.178 356.201 193.263 356.767 193.434 357.264C193.609 357.761 193.867 358.154 194.208 358.443C194.554 358.727 194.98 358.869 195.487 358.869ZM205.835 354.693V361H202.809V350.091H205.692V352.016H205.82C206.062 351.381 206.467 350.879 207.035 350.51C207.603 350.136 208.292 349.949 209.102 349.949C209.859 349.949 210.52 350.115 211.083 350.446C211.647 350.777 212.085 351.251 212.397 351.866C212.71 352.477 212.866 353.206 212.866 354.054V361H209.84V354.594C209.845 353.926 209.674 353.405 209.329 353.031C208.983 352.652 208.507 352.463 207.901 352.463C207.494 352.463 207.134 352.551 206.822 352.726C206.514 352.901 206.272 353.157 206.097 353.493C205.927 353.824 205.839 354.224 205.835 354.693ZM221.053 350.091V352.364H214.483V350.091H221.053ZM215.975 347.477H219V357.648C219 357.927 219.043 358.145 219.128 358.301C219.213 358.453 219.332 358.559 219.483 358.621C219.64 358.682 219.819 358.713 220.023 358.713C220.165 358.713 220.307 358.701 220.449 358.678C220.591 358.649 220.7 358.628 220.776 358.614L221.252 360.865C221.1 360.912 220.887 360.967 220.613 361.028C220.338 361.095 220.004 361.135 219.611 361.149C218.882 361.178 218.243 361.08 217.694 360.858C217.149 360.635 216.725 360.29 216.422 359.821C216.119 359.352 215.97 358.76 215.975 358.045V347.477ZM223.024 361V350.091H225.957V351.994H226.071C226.27 351.317 226.603 350.806 227.072 350.46C227.541 350.11 228.081 349.935 228.691 349.935C228.843 349.935 229.006 349.944 229.181 349.963C229.357 349.982 229.511 350.008 229.643 350.041V352.726C229.501 352.683 229.305 352.645 229.054 352.612C228.803 352.579 228.573 352.562 228.365 352.562C227.92 352.562 227.522 352.66 227.172 352.854C226.826 353.043 226.551 353.308 226.348 353.649C226.149 353.99 226.049 354.383 226.049 354.828V361H223.024ZM234.006 361.206C233.31 361.206 232.689 361.085 232.145 360.844C231.6 360.598 231.17 360.235 230.852 359.757C230.54 359.274 230.384 358.673 230.384 357.953C230.384 357.347 230.495 356.838 230.717 356.426C230.94 356.014 231.243 355.683 231.626 355.432C232.01 355.181 232.446 354.991 232.933 354.864C233.426 354.736 233.942 354.646 234.482 354.594C235.116 354.527 235.627 354.466 236.016 354.409C236.404 354.348 236.686 354.258 236.861 354.139C237.036 354.021 237.124 353.846 237.124 353.614V353.571C237.124 353.121 236.982 352.773 236.697 352.527C236.418 352.281 236.02 352.158 235.504 352.158C234.96 352.158 234.527 352.278 234.205 352.52C233.883 352.757 233.67 353.055 233.565 353.415L230.767 353.188C230.909 352.525 231.188 351.952 231.605 351.469C232.022 350.981 232.559 350.607 233.217 350.347C233.88 350.081 234.647 349.949 235.518 349.949C236.125 349.949 236.705 350.02 237.259 350.162C237.817 350.304 238.312 350.524 238.743 350.822C239.179 351.121 239.522 351.504 239.773 351.973C240.024 352.437 240.149 352.993 240.149 353.642V361H237.28V359.487H237.195C237.019 359.828 236.785 360.129 236.491 360.389C236.198 360.645 235.845 360.846 235.433 360.993C235.021 361.135 234.545 361.206 234.006 361.206ZM234.872 359.118C235.317 359.118 235.71 359.03 236.051 358.855C236.392 358.675 236.66 358.434 236.854 358.131C237.048 357.828 237.145 357.484 237.145 357.101V355.943C237.05 356.005 236.92 356.062 236.754 356.114C236.593 356.161 236.411 356.206 236.207 356.249C236.004 356.286 235.8 356.322 235.597 356.355C235.393 356.384 235.208 356.41 235.043 356.433C234.688 356.485 234.377 356.568 234.112 356.682C233.847 356.795 233.641 356.949 233.494 357.143C233.348 357.333 233.274 357.57 233.274 357.854C233.274 358.266 233.423 358.58 233.722 358.798C234.025 359.011 234.408 359.118 234.872 359.118ZM242.496 361V350.091H245.38V352.016H245.508C245.735 351.376 246.114 350.872 246.644 350.503C247.174 350.134 247.809 349.949 248.548 349.949C249.296 349.949 249.933 350.136 250.458 350.51C250.984 350.879 251.334 351.381 251.509 352.016H251.623C251.845 351.391 252.248 350.891 252.83 350.517C253.417 350.138 254.111 349.949 254.911 349.949C255.929 349.949 256.755 350.273 257.39 350.922C258.029 351.566 258.349 352.48 258.349 353.663V361H255.33V354.26C255.33 353.654 255.169 353.199 254.847 352.896C254.525 352.593 254.123 352.442 253.64 352.442C253.091 352.442 252.662 352.617 252.354 352.967C252.047 353.313 251.893 353.77 251.893 354.338V361H248.96V354.196C248.96 353.661 248.806 353.235 248.498 352.918C248.195 352.6 247.795 352.442 247.298 352.442C246.961 352.442 246.658 352.527 246.388 352.697C246.123 352.863 245.913 353.098 245.756 353.401C245.6 353.699 245.522 354.049 245.522 354.452V361H242.496ZM265.668 361.213C264.564 361.213 263.61 360.979 262.805 360.51C262.005 360.036 261.387 359.378 260.952 358.536C260.516 357.688 260.298 356.705 260.298 355.588C260.298 354.461 260.516 353.476 260.952 352.634C261.387 351.786 262.005 351.128 262.805 350.659C263.61 350.186 264.564 349.949 265.668 349.949C266.771 349.949 267.723 350.186 268.523 350.659C269.328 351.128 269.948 351.786 270.384 352.634C270.819 353.476 271.037 354.461 271.037 355.588C271.037 356.705 270.819 357.688 270.384 358.536C269.948 359.378 269.328 360.036 268.523 360.51C267.723 360.979 266.771 361.213 265.668 361.213ZM265.682 358.869C266.184 358.869 266.603 358.727 266.939 358.443C267.275 358.154 267.528 357.761 267.699 357.264C267.874 356.767 267.962 356.201 267.962 355.567C267.962 354.932 267.874 354.366 267.699 353.869C267.528 353.372 267.275 352.979 266.939 352.69C266.603 352.402 266.184 352.257 265.682 352.257C265.175 352.257 264.749 352.402 264.403 352.69C264.063 352.979 263.804 353.372 263.629 353.869C263.459 354.366 263.374 354.932 263.374 355.567C263.374 356.201 263.459 356.767 263.629 357.264C263.804 357.761 264.063 358.154 264.403 358.443C264.749 358.727 265.175 358.869 265.682 358.869ZM282.081 353.202L279.311 353.372C279.264 353.135 279.162 352.922 279.006 352.733C278.849 352.539 278.643 352.385 278.388 352.271C278.137 352.153 277.836 352.094 277.486 352.094C277.017 352.094 276.622 352.193 276.3 352.392C275.978 352.586 275.817 352.847 275.817 353.173C275.817 353.434 275.921 353.654 276.129 353.834C276.338 354.014 276.695 354.158 277.202 354.267L279.176 354.665C280.237 354.883 281.027 355.233 281.548 355.716C282.069 356.199 282.33 356.833 282.33 357.619C282.33 358.334 282.119 358.962 281.697 359.501C281.281 360.041 280.708 360.463 279.979 360.766C279.254 361.064 278.419 361.213 277.472 361.213C276.027 361.213 274.877 360.912 274.02 360.311C273.168 359.705 272.668 358.881 272.521 357.839L275.497 357.683C275.587 358.124 275.805 358.46 276.151 358.692C276.496 358.919 276.939 359.033 277.479 359.033C278.009 359.033 278.435 358.931 278.757 358.727C279.084 358.519 279.25 358.251 279.254 357.925C279.25 357.65 279.134 357.425 278.906 357.25C278.679 357.07 278.329 356.933 277.855 356.838L275.966 356.462C274.901 356.249 274.107 355.879 273.587 355.354C273.071 354.828 272.812 354.158 272.812 353.344C272.812 352.643 273.002 352.039 273.381 351.533C273.764 351.026 274.302 350.635 274.993 350.361C275.689 350.086 276.503 349.949 277.436 349.949C278.814 349.949 279.898 350.24 280.689 350.822C281.484 351.405 281.948 352.198 282.081 353.202ZM293.793 361.213C292.689 361.213 291.735 360.979 290.93 360.51C290.13 360.036 289.512 359.378 289.077 358.536C288.641 357.688 288.423 356.705 288.423 355.588C288.423 354.461 288.641 353.476 289.077 352.634C289.512 351.786 290.13 351.128 290.93 350.659C291.735 350.186 292.689 349.949 293.793 349.949C294.896 349.949 295.848 350.186 296.648 350.659C297.453 351.128 298.073 351.786 298.509 352.634C298.944 353.476 299.162 354.461 299.162 355.588C299.162 356.705 298.944 357.688 298.509 358.536C298.073 359.378 297.453 360.036 296.648 360.51C295.848 360.979 294.896 361.213 293.793 361.213ZM293.807 358.869C294.309 358.869 294.728 358.727 295.064 358.443C295.4 358.154 295.653 357.761 295.824 357.264C295.999 356.767 296.087 356.201 296.087 355.567C296.087 354.932 295.999 354.366 295.824 353.869C295.653 353.372 295.4 352.979 295.064 352.69C294.728 352.402 294.309 352.257 293.807 352.257C293.3 352.257 292.874 352.402 292.528 352.69C292.188 352.979 291.929 353.372 291.754 353.869C291.584 354.366 291.499 354.932 291.499 355.567C291.499 356.201 291.584 356.767 291.754 357.264C291.929 357.761 292.188 358.154 292.528 358.443C292.874 358.727 293.3 358.869 293.807 358.869ZM312.967 365.091V359.253H312.875C312.733 359.556 312.531 359.857 312.271 360.155C312.015 360.448 311.681 360.692 311.27 360.886C310.862 361.08 310.365 361.178 309.778 361.178C308.949 361.178 308.199 360.964 307.527 360.538C306.859 360.107 306.329 359.475 305.936 358.642C305.547 357.804 305.353 356.777 305.353 355.56C305.353 354.31 305.555 353.27 305.957 352.442C306.359 351.608 306.895 350.986 307.562 350.574C308.234 350.157 308.971 349.949 309.771 349.949C310.382 349.949 310.891 350.053 311.298 350.261C311.71 350.465 312.041 350.721 312.292 351.028C312.548 351.331 312.742 351.63 312.875 351.923H313.002V350.091H315.985V365.091H312.967ZM310.737 358.77C311.225 358.77 311.636 358.637 311.973 358.372C312.314 358.102 312.574 357.726 312.754 357.243C312.939 356.76 313.031 356.194 313.031 355.545C313.031 354.897 312.941 354.333 312.761 353.855C312.581 353.377 312.321 353.008 311.98 352.747C311.639 352.487 311.225 352.357 310.737 352.357C310.24 352.357 309.821 352.491 309.48 352.761C309.139 353.031 308.881 353.405 308.706 353.884C308.53 354.362 308.443 354.916 308.443 355.545C308.443 356.18 308.53 356.741 308.706 357.229C308.886 357.712 309.144 358.09 309.48 358.365C309.821 358.635 310.24 358.77 310.737 358.77ZM325.41 356.355V350.091H328.436V361H325.531V359.018H325.417C325.171 359.658 324.761 360.171 324.189 360.56C323.62 360.948 322.927 361.142 322.108 361.142C321.378 361.142 320.737 360.976 320.183 360.645C319.629 360.313 319.196 359.842 318.883 359.232C318.575 358.621 318.419 357.889 318.414 357.037V350.091H321.44V356.497C321.445 357.141 321.618 357.65 321.958 358.024C322.299 358.398 322.756 358.585 323.329 358.585C323.694 358.585 324.035 358.502 324.352 358.337C324.669 358.166 324.925 357.915 325.119 357.584C325.318 357.252 325.415 356.843 325.41 356.355ZM335.827 361.213C334.705 361.213 333.739 360.986 332.93 360.531C332.125 360.072 331.504 359.423 331.069 358.585C330.633 357.742 330.415 356.746 330.415 355.595C330.415 354.473 330.633 353.488 331.069 352.641C331.504 351.793 332.118 351.133 332.908 350.659C333.704 350.186 334.637 349.949 335.707 349.949C336.426 349.949 337.096 350.065 337.717 350.297C338.342 350.524 338.886 350.867 339.35 351.327C339.819 351.786 340.183 352.364 340.444 353.06C340.704 353.751 340.835 354.561 340.835 355.489V356.32H331.623V354.445H337.987C337.987 354.009 337.892 353.623 337.702 353.287C337.513 352.951 337.25 352.688 336.914 352.499C336.583 352.304 336.197 352.207 335.756 352.207C335.297 352.207 334.89 352.314 334.535 352.527C334.184 352.735 333.91 353.017 333.711 353.372C333.512 353.723 333.41 354.113 333.406 354.544V356.327C333.406 356.866 333.505 357.333 333.704 357.726C333.907 358.119 334.194 358.422 334.563 358.635C334.933 358.848 335.371 358.955 335.877 358.955C336.213 358.955 336.521 358.907 336.8 358.812C337.08 358.718 337.319 358.576 337.518 358.386C337.717 358.197 337.868 357.965 337.972 357.69L340.771 357.875C340.629 358.547 340.337 359.134 339.897 359.636C339.461 360.134 338.898 360.522 338.207 360.801C337.52 361.076 336.727 361.213 335.827 361.213ZM357.608 350.091L353.794 361H350.385L346.571 350.091H349.767L352.033 357.896H352.147L354.405 350.091H357.608ZM363.734 361.213C362.631 361.213 361.677 360.979 360.872 360.51C360.072 360.036 359.454 359.378 359.018 358.536C358.583 357.688 358.365 356.705 358.365 355.588C358.365 354.461 358.583 353.476 359.018 352.634C359.454 351.786 360.072 351.128 360.872 350.659C361.677 350.186 362.631 349.949 363.734 349.949C364.837 349.949 365.789 350.186 366.589 350.659C367.394 351.128 368.014 351.786 368.45 352.634C368.886 353.476 369.103 354.461 369.103 355.588C369.103 356.705 368.886 357.688 368.45 358.536C368.014 359.378 367.394 360.036 366.589 360.51C365.789 360.979 364.837 361.213 363.734 361.213ZM363.748 358.869C364.25 358.869 364.669 358.727 365.005 358.443C365.342 358.154 365.595 357.761 365.765 357.264C365.94 356.767 366.028 356.201 366.028 355.567C366.028 354.932 365.94 354.366 365.765 353.869C365.595 353.372 365.342 352.979 365.005 352.69C364.669 352.402 364.25 352.257 363.748 352.257C363.242 352.257 362.815 352.402 362.47 352.69C362.129 352.979 361.871 353.372 361.696 353.869C361.525 354.366 361.44 354.932 361.44 355.567C361.44 356.201 361.525 356.767 361.696 357.264C361.871 357.761 362.129 358.154 362.47 358.443C362.815 358.727 363.242 358.869 363.748 358.869ZM376 361.213C374.882 361.213 373.921 360.976 373.116 360.503C372.316 360.025 371.7 359.362 371.27 358.514C370.843 357.667 370.63 356.691 370.63 355.588C370.63 354.471 370.846 353.491 371.277 352.648C371.712 351.8 372.33 351.14 373.13 350.666C373.931 350.188 374.882 349.949 375.985 349.949C376.937 349.949 377.77 350.122 378.485 350.467C379.2 350.813 379.766 351.298 380.183 351.923C380.6 352.548 380.829 353.282 380.872 354.125H378.017C377.936 353.58 377.723 353.143 377.377 352.811C377.037 352.475 376.589 352.307 376.035 352.307C375.566 352.307 375.157 352.435 374.806 352.69C374.461 352.941 374.191 353.308 373.997 353.791C373.803 354.274 373.706 354.859 373.706 355.545C373.706 356.241 373.8 356.833 373.99 357.321C374.184 357.809 374.456 358.18 374.806 358.436C375.157 358.692 375.566 358.82 376.035 358.82C376.381 358.82 376.691 358.749 376.966 358.607C377.245 358.464 377.475 358.259 377.654 357.989C377.839 357.714 377.96 357.385 378.017 357.001H380.872C380.824 357.835 380.597 358.569 380.19 359.203C379.788 359.833 379.231 360.325 378.521 360.68C377.811 361.036 376.97 361.213 376 361.213ZM387.781 361.213C386.658 361.213 385.692 360.986 384.883 360.531C384.078 360.072 383.458 359.423 383.022 358.585C382.586 357.742 382.369 356.746 382.369 355.595C382.369 354.473 382.586 353.488 383.022 352.641C383.458 351.793 384.071 351.133 384.862 350.659C385.657 350.186 386.59 349.949 387.66 349.949C388.379 349.949 389.049 350.065 389.67 350.297C390.295 350.524 390.839 350.867 391.303 351.327C391.772 351.786 392.137 352.364 392.397 353.06C392.657 353.751 392.788 354.561 392.788 355.489V356.32H383.576V354.445H389.94C389.94 354.009 389.845 353.623 389.656 353.287C389.466 352.951 389.203 352.688 388.867 352.499C388.536 352.304 388.15 352.207 387.71 352.207C387.25 352.207 386.843 352.314 386.488 352.527C386.138 352.735 385.863 353.017 385.664 353.372C385.465 353.723 385.363 354.113 385.359 354.544V356.327C385.359 356.866 385.458 357.333 385.657 357.726C385.861 358.119 386.147 358.422 386.516 358.635C386.886 358.848 387.324 358.955 387.83 358.955C388.166 358.955 388.474 358.907 388.754 358.812C389.033 358.718 389.272 358.576 389.471 358.386C389.67 358.197 389.821 357.965 389.925 357.69L392.724 357.875C392.582 358.547 392.29 359.134 391.85 359.636C391.415 360.134 390.851 360.522 390.16 360.801C389.473 361.076 388.68 361.213 387.781 361.213ZM389.016 348.784L387.589 347.051L386.161 348.784H383.583V348.685L386.46 345.56H388.711L391.594 348.685V348.784H389.016ZM404.363 361.213C403.24 361.213 402.275 360.986 401.465 360.531C400.66 360.072 400.04 359.423 399.604 358.585C399.168 357.742 398.951 356.746 398.951 355.595C398.951 354.473 399.168 353.488 399.604 352.641C400.04 351.793 400.653 351.133 401.444 350.659C402.239 350.186 403.172 349.949 404.242 349.949C404.962 349.949 405.632 350.065 406.252 350.297C406.877 350.524 407.421 350.867 407.885 351.327C408.354 351.786 408.719 352.364 408.979 353.06C409.239 353.751 409.37 354.561 409.37 355.489V356.32H400.158V354.445H406.522C406.522 354.009 406.427 353.623 406.238 353.287C406.048 352.951 405.785 352.688 405.449 352.499C405.118 352.304 404.732 352.207 404.292 352.207C403.832 352.207 403.425 352.314 403.07 352.527C402.72 352.735 402.445 353.017 402.246 353.372C402.047 353.723 401.945 354.113 401.941 354.544V356.327C401.941 356.866 402.04 357.333 402.239 357.726C402.443 358.119 402.729 358.422 403.098 358.635C403.468 358.848 403.906 358.955 404.412 358.955C404.748 358.955 405.056 358.907 405.336 358.812C405.615 358.718 405.854 358.576 406.053 358.386C406.252 358.197 406.403 357.965 406.507 357.69L409.306 357.875C409.164 358.547 408.873 359.134 408.432 359.636C407.997 360.134 407.433 360.522 406.742 360.801C406.055 361.076 405.262 361.213 404.363 361.213ZM420.421 353.202L417.651 353.372C417.604 353.135 417.502 352.922 417.346 352.733C417.189 352.539 416.983 352.385 416.728 352.271C416.477 352.153 416.176 352.094 415.826 352.094C415.357 352.094 414.962 352.193 414.64 352.392C414.318 352.586 414.157 352.847 414.157 353.173C414.157 353.434 414.261 353.654 414.469 353.834C414.677 354.014 415.035 354.158 415.542 354.267L417.516 354.665C418.577 354.883 419.367 355.233 419.888 355.716C420.409 356.199 420.669 356.833 420.669 357.619C420.669 358.334 420.459 358.962 420.037 359.501C419.621 360.041 419.048 360.463 418.319 360.766C417.594 361.064 416.758 361.213 415.811 361.213C414.367 361.213 413.217 360.912 412.36 360.311C411.507 359.705 411.008 358.881 410.861 357.839L413.837 357.683C413.927 358.124 414.145 358.46 414.49 358.692C414.836 358.919 415.279 359.033 415.819 359.033C416.349 359.033 416.775 358.931 417.097 358.727C417.424 358.519 417.589 358.251 417.594 357.925C417.589 357.65 417.473 357.425 417.246 357.25C417.019 357.07 416.668 356.933 416.195 356.838L414.306 356.462C413.24 356.249 412.447 355.879 411.926 355.354C411.41 354.828 411.152 354.158 411.152 353.344C411.152 352.643 411.342 352.039 411.721 351.533C412.104 351.026 412.641 350.635 413.333 350.361C414.029 350.086 414.843 349.949 415.776 349.949C417.154 349.949 418.238 350.24 419.029 350.822C419.824 351.405 420.288 352.198 420.421 353.202ZM428.377 350.091V352.364H421.808V350.091H428.377ZM423.299 347.477H426.325V357.648C426.325 357.927 426.367 358.145 426.452 358.301C426.538 358.453 426.656 358.559 426.808 358.621C426.964 358.682 427.144 358.713 427.347 358.713C427.489 358.713 427.631 358.701 427.773 358.678C427.915 358.649 428.024 358.628 428.1 358.614L428.576 360.865C428.424 360.912 428.211 360.967 427.937 361.028C427.662 361.095 427.328 361.135 426.935 361.149C426.206 361.178 425.567 361.08 425.018 360.858C424.473 360.635 424.049 360.29 423.746 359.821C423.443 359.352 423.294 358.76 423.299 358.045V347.477ZM433.459 361.206C432.763 361.206 432.143 361.085 431.598 360.844C431.054 360.598 430.623 360.235 430.305 359.757C429.993 359.274 429.837 358.673 429.837 357.953C429.837 357.347 429.948 356.838 430.17 356.426C430.393 356.014 430.696 355.683 431.08 355.432C431.463 355.181 431.899 354.991 432.386 354.864C432.879 354.736 433.395 354.646 433.935 354.594C434.569 354.527 435.08 354.466 435.469 354.409C435.857 354.348 436.139 354.258 436.314 354.139C436.489 354.021 436.577 353.846 436.577 353.614V353.571C436.577 353.121 436.435 352.773 436.151 352.527C435.871 352.281 435.473 352.158 434.957 352.158C434.413 352.158 433.98 352.278 433.658 352.52C433.336 352.757 433.123 353.055 433.018 353.415L430.22 353.188C430.362 352.525 430.642 351.952 431.058 351.469C431.475 350.981 432.012 350.607 432.67 350.347C433.333 350.081 434.1 349.949 434.972 349.949C435.578 349.949 436.158 350.02 436.712 350.162C437.27 350.304 437.765 350.524 438.196 350.822C438.632 351.121 438.975 351.504 439.226 351.973C439.477 352.437 439.602 352.993 439.602 353.642V361H436.733V359.487H436.648C436.473 359.828 436.238 360.129 435.945 360.389C435.651 360.645 435.298 360.846 434.886 360.993C434.474 361.135 433.999 361.206 433.459 361.206ZM434.325 359.118C434.77 359.118 435.163 359.03 435.504 358.855C435.845 358.675 436.113 358.434 436.307 358.131C436.501 357.828 436.598 357.484 436.598 357.101V355.943C436.503 356.005 436.373 356.062 436.207 356.114C436.046 356.161 435.864 356.206 435.661 356.249C435.457 356.286 435.253 356.322 435.05 356.355C434.846 356.384 434.661 356.41 434.496 356.433C434.141 356.485 433.83 356.568 433.565 356.682C433.3 356.795 433.094 356.949 432.947 357.143C432.801 357.333 432.727 357.57 432.727 357.854C432.727 358.266 432.876 358.58 433.175 358.798C433.478 359.011 433.861 359.118 434.325 359.118ZM451.729 350.091L447.915 361H444.506L440.692 350.091H443.888L446.154 357.896H446.268L448.526 350.091H451.729ZM456.096 361.206C455.4 361.206 454.779 361.085 454.235 360.844C453.69 360.598 453.259 360.235 452.942 359.757C452.63 359.274 452.473 358.673 452.473 357.953C452.473 357.347 452.585 356.838 452.807 356.426C453.03 356.014 453.333 355.683 453.716 355.432C454.1 355.181 454.535 354.991 455.023 354.864C455.516 354.736 456.032 354.646 456.571 354.594C457.206 354.527 457.717 354.466 458.105 354.409C458.494 354.348 458.775 354.258 458.951 354.139C459.126 354.021 459.213 353.846 459.213 353.614V353.571C459.213 353.121 459.071 352.773 458.787 352.527C458.508 352.281 458.11 352.158 457.594 352.158C457.05 352.158 456.616 352.278 456.294 352.52C455.972 352.757 455.759 353.055 455.655 353.415L452.857 353.188C452.999 352.525 453.278 351.952 453.695 351.469C454.112 350.981 454.649 350.607 455.307 350.347C455.97 350.081 456.737 349.949 457.608 349.949C458.214 349.949 458.794 350.02 459.348 350.162C459.907 350.304 460.402 350.524 460.833 350.822C461.268 351.121 461.612 351.504 461.863 351.973C462.114 352.437 462.239 352.993 462.239 353.642V361H459.37V359.487H459.284C459.109 359.828 458.875 360.129 458.581 360.389C458.288 360.645 457.935 360.846 457.523 360.993C457.111 361.135 456.635 361.206 456.096 361.206ZM456.962 359.118C457.407 359.118 457.8 359.03 458.141 358.855C458.482 358.675 458.749 358.434 458.944 358.131C459.138 357.828 459.235 357.484 459.235 357.101V355.943C459.14 356.005 459.01 356.062 458.844 356.114C458.683 356.161 458.501 356.206 458.297 356.249C458.094 356.286 457.89 356.322 457.686 356.355C457.483 356.384 457.298 356.41 457.132 356.433C456.777 356.485 456.467 356.568 456.202 356.682C455.937 356.795 455.731 356.949 455.584 357.143C455.437 357.333 455.364 357.57 455.364 357.854C455.364 358.266 455.513 358.58 455.811 358.798C456.114 359.011 456.498 359.118 456.962 359.118ZM469.215 365.091V350.091H472.198V351.923H472.333C472.466 351.63 472.657 351.331 472.908 351.028C473.164 350.721 473.496 350.465 473.903 350.261C474.315 350.053 474.826 349.949 475.437 349.949C476.232 349.949 476.966 350.157 477.638 350.574C478.311 350.986 478.848 351.608 479.251 352.442C479.653 353.27 479.854 354.31 479.854 355.56C479.854 356.777 479.658 357.804 479.265 358.642C478.877 359.475 478.346 360.107 477.674 360.538C477.006 360.964 476.258 361.178 475.43 361.178C474.843 361.178 474.343 361.08 473.931 360.886C473.524 360.692 473.19 360.448 472.93 360.155C472.669 359.857 472.47 359.556 472.333 359.253H472.241V365.091H469.215ZM472.177 355.545C472.177 356.194 472.267 356.76 472.447 357.243C472.627 357.726 472.887 358.102 473.228 358.372C473.569 358.637 473.983 358.77 474.471 358.77C474.963 358.77 475.38 358.635 475.721 358.365C476.062 358.09 476.32 357.712 476.495 357.229C476.675 356.741 476.765 356.18 476.765 355.545C476.765 354.916 476.677 354.362 476.502 353.884C476.327 353.405 476.069 353.031 475.728 352.761C475.387 352.491 474.968 352.357 474.471 352.357C473.978 352.357 473.562 352.487 473.221 352.747C472.885 353.008 472.627 353.377 472.447 353.855C472.267 354.333 472.177 354.897 472.177 355.545ZM481.871 361V350.091H484.805V351.994H484.918C485.117 351.317 485.451 350.806 485.92 350.46C486.388 350.11 486.928 349.935 487.539 349.935C487.691 349.935 487.854 349.944 488.029 349.963C488.204 349.982 488.358 350.008 488.491 350.041V352.726C488.349 352.683 488.152 352.645 487.901 352.612C487.65 352.579 487.421 352.562 487.212 352.562C486.767 352.562 486.37 352.66 486.019 352.854C485.674 353.043 485.399 353.308 485.195 353.649C484.996 353.99 484.897 354.383 484.897 354.828V361H481.871ZM494.476 361.213C493.373 361.213 492.419 360.979 491.614 360.51C490.814 360.036 490.196 359.378 489.76 358.536C489.325 357.688 489.107 356.705 489.107 355.588C489.107 354.461 489.325 353.476 489.76 352.634C490.196 351.786 490.814 351.128 491.614 350.659C492.419 350.186 493.373 349.949 494.476 349.949C495.579 349.949 496.531 350.186 497.331 350.659C498.136 351.128 498.757 351.786 499.192 352.634C499.628 353.476 499.846 354.461 499.846 355.588C499.846 356.705 499.628 357.688 499.192 358.536C498.757 359.378 498.136 360.036 497.331 360.51C496.531 360.979 495.579 361.213 494.476 361.213ZM494.49 358.869C494.992 358.869 495.411 358.727 495.748 358.443C496.084 358.154 496.337 357.761 496.507 357.264C496.683 356.767 496.77 356.201 496.77 355.567C496.77 354.932 496.683 354.366 496.507 353.869C496.337 353.372 496.084 352.979 495.748 352.69C495.411 352.402 494.992 352.257 494.49 352.257C493.984 352.257 493.558 352.402 493.212 352.69C492.871 352.979 492.613 353.372 492.438 353.869C492.267 354.366 492.182 354.932 492.182 355.567C492.182 356.201 492.267 356.767 492.438 357.264C492.613 357.761 492.871 358.154 493.212 358.443C493.558 358.727 493.984 358.869 494.49 358.869ZM506.742 361.213C505.624 361.213 504.663 360.976 503.858 360.503C503.058 360.025 502.443 359.362 502.012 358.514C501.586 357.667 501.373 356.691 501.373 355.588C501.373 354.471 501.588 353.491 502.019 352.648C502.454 351.8 503.072 351.14 503.873 350.666C504.673 350.188 505.624 349.949 506.728 349.949C507.679 349.949 508.513 350.122 509.228 350.467C509.943 350.813 510.508 351.298 510.925 351.923C511.342 352.548 511.571 353.282 511.614 354.125H508.759C508.678 353.58 508.465 353.143 508.12 352.811C507.779 352.475 507.331 352.307 506.777 352.307C506.309 352.307 505.899 352.435 505.549 352.69C505.203 352.941 504.933 353.308 504.739 353.791C504.545 354.274 504.448 354.859 504.448 355.545C504.448 356.241 504.542 356.833 504.732 357.321C504.926 357.809 505.198 358.18 505.549 358.436C505.899 358.692 506.309 358.82 506.777 358.82C507.123 358.82 507.433 358.749 507.708 358.607C507.987 358.464 508.217 358.259 508.397 357.989C508.581 357.714 508.702 357.385 508.759 357.001H511.614C511.567 357.835 511.339 358.569 510.932 359.203C510.53 359.833 509.973 360.325 509.263 360.68C508.553 361.036 507.712 361.213 506.742 361.213ZM520.547 356.355V350.091H523.572V361H520.668V359.018H520.554C520.308 359.658 519.898 360.171 519.325 360.56C518.757 360.948 518.063 361.142 517.244 361.142C516.515 361.142 515.874 360.976 515.32 360.645C514.766 360.313 514.332 359.842 514.02 359.232C513.712 358.621 513.556 357.889 513.551 357.037V350.091H516.577V356.497C516.581 357.141 516.754 357.65 517.095 358.024C517.436 358.398 517.893 358.585 518.466 358.585C518.83 358.585 519.171 358.502 519.489 358.337C519.806 358.166 520.062 357.915 520.256 357.584C520.455 357.252 520.552 356.843 520.547 356.355ZM525.993 361V350.091H528.926V351.994H529.039C529.238 351.317 529.572 350.806 530.041 350.46C530.51 350.11 531.049 349.935 531.66 349.935C531.812 349.935 531.975 349.944 532.15 349.963C532.325 349.982 532.479 350.008 532.612 350.041V352.726C532.47 352.683 532.273 352.645 532.022 352.612C531.771 352.579 531.542 352.562 531.333 352.562C530.888 352.562 530.491 352.66 530.14 352.854C529.795 353.043 529.52 353.308 529.316 353.649C529.118 353.99 529.018 354.383 529.018 354.828V361H525.993ZM536.974 361.206C536.278 361.206 535.658 361.085 535.114 360.844C534.569 360.598 534.138 360.235 533.821 359.757C533.509 359.274 533.352 358.673 533.352 357.953C533.352 357.347 533.464 356.838 533.686 356.426C533.909 356.014 534.212 355.683 534.595 355.432C534.979 355.181 535.414 354.991 535.902 354.864C536.394 354.736 536.911 354.646 537.45 354.594C538.085 354.527 538.596 354.466 538.984 354.409C539.373 354.348 539.654 354.258 539.83 354.139C540.005 354.021 540.092 353.846 540.092 353.614V353.571C540.092 353.121 539.95 352.773 539.666 352.527C539.387 352.281 538.989 352.158 538.473 352.158C537.929 352.158 537.495 352.278 537.173 352.52C536.851 352.757 536.638 353.055 536.534 353.415L533.736 353.188C533.878 352.525 534.157 351.952 534.574 351.469C534.991 350.981 535.528 350.607 536.186 350.347C536.849 350.081 537.616 349.949 538.487 349.949C539.093 349.949 539.673 350.02 540.227 350.162C540.786 350.304 541.281 350.524 541.712 350.822C542.147 351.121 542.491 351.504 542.741 351.973C542.992 352.437 543.118 352.993 543.118 353.642V361H540.249V359.487H540.163C539.988 359.828 539.754 360.129 539.46 360.389C539.167 360.645 538.814 360.846 538.402 360.993C537.99 361.135 537.514 361.206 536.974 361.206ZM537.841 359.118C538.286 359.118 538.679 359.03 539.02 358.855C539.361 358.675 539.628 358.434 539.822 358.131C540.017 357.828 540.114 357.484 540.114 357.101V355.943C540.019 356.005 539.889 356.062 539.723 356.114C539.562 356.161 539.38 356.206 539.176 356.249C538.973 356.286 538.769 356.322 538.565 356.355C538.362 356.384 538.177 356.41 538.011 356.433C537.656 356.485 537.346 356.568 537.081 356.682C536.816 356.795 536.61 356.949 536.463 357.143C536.316 357.333 536.243 357.57 536.243 357.854C536.243 358.266 536.392 358.58 536.69 358.798C536.993 359.011 537.377 359.118 537.841 359.118ZM548.491 354.693V361H545.465V350.091H548.349V352.016H548.477C548.718 351.381 549.123 350.879 549.691 350.51C550.259 350.136 550.948 349.949 551.758 349.949C552.515 349.949 553.176 350.115 553.739 350.446C554.303 350.777 554.741 351.251 555.053 351.866C555.366 352.477 555.522 353.206 555.522 354.054V361H552.496V354.594C552.501 353.926 552.331 353.405 551.985 353.031C551.639 352.652 551.164 352.463 550.558 352.463C550.15 352.463 549.79 352.551 549.478 352.726C549.17 352.901 548.929 353.157 548.754 353.493C548.583 353.824 548.496 354.224 548.491 354.693ZM561.926 361.178C561.098 361.178 560.347 360.964 559.675 360.538C559.007 360.107 558.477 359.475 558.084 358.642C557.696 357.804 557.502 356.777 557.502 355.56C557.502 354.31 557.703 353.27 558.105 352.442C558.508 351.608 559.043 350.986 559.711 350.574C560.383 350.157 561.119 349.949 561.919 349.949C562.53 349.949 563.039 350.053 563.446 350.261C563.858 350.465 564.19 350.721 564.441 351.028C564.696 351.331 564.891 351.63 565.023 351.923H565.115V346.455H568.134V361H565.151V359.253H565.023C564.881 359.556 564.68 359.857 564.419 360.155C564.164 360.448 563.83 360.692 563.418 360.886C563.011 361.08 562.514 361.178 561.926 361.178ZM562.885 358.77C563.373 358.77 563.785 358.637 564.121 358.372C564.462 358.102 564.722 357.726 564.902 357.243C565.087 356.76 565.179 356.194 565.179 355.545C565.179 354.897 565.089 354.333 564.909 353.855C564.73 353.377 564.469 353.008 564.128 352.747C563.787 352.487 563.373 352.357 562.885 352.357C562.388 352.357 561.969 352.491 561.628 352.761C561.287 353.031 561.029 353.405 560.854 353.884C560.679 354.362 560.591 354.916 560.591 355.545C560.591 356.18 560.679 356.741 560.854 357.229C561.034 357.712 561.292 358.09 561.628 358.365C561.969 358.635 562.388 358.77 562.885 358.77ZM575.55 361.213C574.447 361.213 573.493 360.979 572.688 360.51C571.888 360.036 571.27 359.378 570.835 358.536C570.399 357.688 570.181 356.705 570.181 355.588C570.181 354.461 570.399 353.476 570.835 352.634C571.27 351.786 571.888 351.128 572.688 350.659C573.493 350.186 574.447 349.949 575.55 349.949C576.654 349.949 577.605 350.186 578.406 350.659C579.21 351.128 579.831 351.786 580.266 352.634C580.702 353.476 580.92 354.461 580.92 355.588C580.92 356.705 580.702 357.688 580.266 358.536C579.831 359.378 579.21 360.036 578.406 360.51C577.605 360.979 576.654 361.213 575.55 361.213ZM575.565 358.869C576.067 358.869 576.486 358.727 576.822 358.443C577.158 358.154 577.411 357.761 577.582 357.264C577.757 356.767 577.844 356.201 577.844 355.567C577.844 354.932 577.757 354.366 577.582 353.869C577.411 353.372 577.158 352.979 576.822 352.69C576.486 352.402 576.067 352.257 575.565 352.257C575.058 352.257 574.632 352.402 574.286 352.69C573.945 352.979 573.687 353.372 573.512 353.869C573.342 354.366 573.256 354.932 573.256 355.567C573.256 356.201 573.342 356.767 573.512 357.264C573.687 357.761 573.945 358.154 574.286 358.443C574.632 358.727 575.058 358.869 575.565 358.869Z" fill="white"/>
</g>
<defs>
<clipPath id="clip0_150_2">
<rect width="670" height="576" fill="white"/>
</clipPath>
</defs>
</svg>
